G04 ================== begin FILE IDENTIFICATION RECORD ==================*
G04 Layout Name:  C:/Users/6gioc/OneDrive/AAST/CIRCUIT/SCHM_N/allegro/AAST_BOARD V1.brd*
G04 Film Name:    DRD*
G04 File Format:  Gerber RS274X*
G04 File Origin:  Cadence Allegro 17.2-S038*
G04 Origin Date:  Thu Nov 30 16:01:58 2023*
G04 *
G04 Layer:  MANUFACTURING/NCLEGEND-1-2*
G04 Layer:  BOARD GEOMETRY/OUTLINE*
G04 Layer:  BOARD GEOMETRY/DIMENSION*
G04 *
G04 Offset:    (0.0000 0.0000)*
G04 Mirror:    No*
G04 Mode:      Positive*
G04 Rotation:  0*
G04 FullContactRelief:  No*
G04 UndefLineWidth:     0.2000*
G04 ================== end FILE IDENTIFICATION RECORD ====================*
%FSLAX25Y25*MOMM*%
%IR0*IPPOS*OFA0.00000B0.00000*MIA0B0*SFA1.00000B1.00000*%
%AMMACRO16*
1,1,.2,.1651,0.0*
20,1,.2,.1651,0.0,-.1651,0.0,0.0*
1,1,.2,-.1651,0.0*
1,1,.2,0.0,.1651*
20,1,.2,0.0,.1651,0.0,-.1651,0.0*
1,1,.2,0.0,-.1651*
%
%ADD16MACRO16*%
%AMMACRO11*
1,1,.2,.5334,0.0*
20,1,.2,.5334,0.0,0.0,-.5334,0.0*
1,1,.2,0.0,-.5334*
20,1,.2,0.0,-.5334,-.5334,0.0,0.0*
1,1,.2,-.5334,0.0*
20,1,.2,-.5334,0.0,0.0,.5334,0.0*
1,1,.2,0.0,.5334*
20,1,.2,0.0,.5334,.5334,0.0,0.0*
1,1,.2,.5334,0.0*
%
%ADD11MACRO11*%
%AMMACRO13*
1,1,.2,0.0,.5*
20,1,.2,0.0,.5,-.433013,.25,0.0*
1,1,.2,-.433013,.25*
20,1,.2,-.433013,.25,-.433013,-.25,0.0*
1,1,.2,-.433013,-.25*
20,1,.2,-.433013,-.25,0.0,-.5,0.0*
1,1,.2,0.0,-.5*
20,1,.2,0.0,-.5,.433013,-.25,0.0*
1,1,.2,.433013,-.25*
20,1,.2,.433013,-.25,.433013,.25,0.0*
1,1,.2,.433013,.25*
20,1,.2,.433013,.25,0.0,.5,0.0*
1,1,.2,0.0,.5*
%
%ADD13MACRO13*%
%AMMACRO15*
1,1,.2,.3937,.3937*
20,1,.2,.3937,.3937,.3937,-.3937,0.0*
1,1,.2,.3937,-.3937*
20,1,.2,.3937,-.3937,-.3937,-.3937,0.0*
1,1,.2,-.3937,-.3937*
20,1,.2,-.3937,-.3937,-.3937,.3937,0.0*
1,1,.2,-.3937,.3937*
20,1,.2,-.3937,.3937,.3937,.3937,0.0*
1,1,.2,.3937,.3937*
%
%ADD15MACRO15*%
%AMMACRO10*
1,1,.2,0.0,1.5*
20,1,.2,0.0,1.5,1.5,-1.5,0.0*
1,1,.2,1.5,-1.5*
20,1,.2,1.5,-1.5,-1.5,-1.5,0.0*
1,1,.2,-1.5,-1.5*
20,1,.2,-1.5,-1.5,0.0,1.5,0.0*
1,1,.2,0.0,1.5*
%
%ADD10MACRO10*%
%AMMACRO12*
1,1,.2,.4572,0.0*
20,1,.2,.4572,0.0,.2286,.395947,0.0*
1,1,.2,.2286,.395947*
20,1,.2,.2286,.395947,-.2286,.395947,0.0*
1,1,.2,-.2286,.395947*
20,1,.2,-.2286,.395947,-.4572,0.0,0.0*
1,1,.2,-.4572,0.0*
20,1,.2,-.4572,0.0,-.2286,-.395947,0.0*
1,1,.2,-.2286,-.395947*
20,1,.2,-.2286,-.395947,.2286,-.395947,0.0*
1,1,.2,.2286,-.395947*
20,1,.2,.2286,-.395947,.4572,0.0,0.0*
1,1,.2,.4572,0.0*
%
%ADD12MACRO12*%
%AMMACRO14*
1,1,.2,.207107,-.5*
20,1,.2,.207107,-.5,-.207107,-.5,0.0*
1,1,.2,-.207107,-.5*
20,1,.2,-.207107,-.5,-.5,-.207107,0.0*
1,1,.2,-.5,-.207107*
20,1,.2,-.5,-.207107,-.5,.207107,0.0*
1,1,.2,-.5,.207107*
20,1,.2,-.5,.207107,-.207107,.5,0.0*
1,1,.2,-.207107,.5*
20,1,.2,-.207107,.5,.207107,.5,0.0*
1,1,.2,.207107,.5*
20,1,.2,.207107,.5,.5,.207107,0.0*
1,1,.2,.5,.207107*
20,1,.2,.5,.207107,.5,-.207107,0.0*
1,1,.2,.5,-.207107*
20,1,.2,.5,-.207107,.207107,-.5,0.0*
1,1,.2,.207107,-.5*
%
%ADD14MACRO14*%
%ADD17C,.2*%
G75*
%LPD*%
G75*
G54D10*
X500000Y500000D03*
X1141730Y-6111000D03*
X2200000Y3500000D03*
X15800000D03*
X17500000Y500000D03*
G54D11*
X635000Y1016000D03*
Y2794000D03*
X1141730Y-5476000D03*
X1397000Y508000D03*
X1651000Y1016000D03*
Y2794000D03*
X2413000Y508000D03*
X3937000D03*
X4953000D03*
X4699000Y1778000D03*
Y2794000D03*
X5715000Y3683000D03*
X6858000Y635000D03*
Y254000D03*
X6731000Y3683000D03*
X8128000Y635000D03*
X7874000D03*
Y254000D03*
X8128000D03*
X9144000Y635000D03*
Y254000D03*
X8890000Y3683000D03*
X9652000Y254000D03*
Y635000D03*
X9906000Y3683000D03*
X10668000Y254000D03*
Y635000D03*
X10414000Y3683000D03*
X11430000D03*
X13589000Y635000D03*
Y254000D03*
X13208000Y3683000D03*
X14224000D03*
X14605000Y635000D03*
Y254000D03*
X15113000D03*
X16129000D03*
G54D12*
X635000Y1524000D03*
X1141730Y-3571000D03*
X889000Y1524000D03*
X2032000Y1016000D03*
Y1270000D03*
Y1524000D03*
Y1778000D03*
Y2032000D03*
Y2286000D03*
Y2540000D03*
Y2794000D03*
X2794000Y1524000D03*
Y1270000D03*
Y1016000D03*
Y2286000D03*
Y2032000D03*
Y1778000D03*
Y2794000D03*
Y2540000D03*
X3556000Y1016000D03*
Y1270000D03*
Y1524000D03*
Y1778000D03*
Y2032000D03*
Y2286000D03*
Y2540000D03*
Y2794000D03*
X4318000Y1524000D03*
Y1270000D03*
Y1016000D03*
Y2286000D03*
Y2032000D03*
Y1778000D03*
Y2794000D03*
Y2540000D03*
X5080000Y1016000D03*
X5334000D03*
X5080000Y3302000D03*
X5334000D03*
X6096000Y1016000D03*
X5842000D03*
X5588000D03*
Y3302000D03*
X5842000D03*
X6096000D03*
X6858000Y1016000D03*
X6604000D03*
X6350000D03*
Y3302000D03*
X6604000D03*
X6858000D03*
X7620000Y1016000D03*
X7366000D03*
X7112000D03*
Y3302000D03*
X7366000D03*
X7620000D03*
X8382000Y1016000D03*
X8128000D03*
X7874000D03*
Y3302000D03*
X8128000D03*
X8382000D03*
X8890000Y1016000D03*
X8636000D03*
X9144000D03*
X8636000Y3302000D03*
X8890000D03*
X9144000D03*
X9906000Y1016000D03*
X9652000D03*
X9398000D03*
Y3302000D03*
X9652000D03*
X9906000D03*
X10668000Y1016000D03*
X10414000D03*
X10160000D03*
Y3302000D03*
X10414000D03*
X10668000D03*
X11430000Y1016000D03*
X11176000D03*
X10922000D03*
Y3302000D03*
X11176000D03*
X11430000D03*
X12192000Y1016000D03*
X11938000D03*
X11684000D03*
X12065000Y3683000D03*
X11684000Y3302000D03*
X11938000D03*
X12192000D03*
X12954000Y1016000D03*
X12700000D03*
X12446000D03*
X12319000Y3683000D03*
X12954000D03*
X12700000D03*
X12446000Y3302000D03*
X12700000D03*
X12954000D03*
X13716000Y1143000D03*
Y1397000D03*
Y1651000D03*
Y1905000D03*
Y2159000D03*
Y2413000D03*
Y2667000D03*
Y2921000D03*
X14478000Y1397000D03*
Y1143000D03*
Y2159000D03*
Y1905000D03*
Y1651000D03*
Y2921000D03*
Y2667000D03*
Y2413000D03*
X15240000Y1143000D03*
Y1397000D03*
Y1651000D03*
Y1905000D03*
Y2159000D03*
Y2413000D03*
Y2667000D03*
Y2921000D03*
X16002000Y1397000D03*
Y1143000D03*
Y2159000D03*
Y1905000D03*
Y1651000D03*
Y2921000D03*
Y2667000D03*
Y2413000D03*
G54D13*
X1141730Y-4841000D03*
X2921000Y3429000D03*
X3048000Y508000D03*
X5461000Y254000D03*
X11557000D03*
X14605000Y3429000D03*
X17399000Y1397000D03*
X16764000Y2159000D03*
G54D14*
X1141730Y-4206000D03*
X2921000Y3683000D03*
X3302000Y508000D03*
X3175000Y3683000D03*
X3429000D03*
Y3429000D03*
X3175000D03*
X5461000Y508000D03*
X5715000D03*
X5969000D03*
Y254000D03*
X5715000D03*
X6223000Y508000D03*
X6477000D03*
Y254000D03*
X6223000D03*
X11557000Y508000D03*
X11811000D03*
X12065000D03*
Y254000D03*
X11811000D03*
X12319000Y508000D03*
X12573000D03*
Y254000D03*
X12319000D03*
X14605000Y3683000D03*
X14859000D03*
X15113000D03*
Y3429000D03*
X14859000D03*
X17399000Y1143000D03*
X17018000Y2159000D03*
X17653000Y1397000D03*
Y1143000D03*
G54D15*
X1141730Y-2936000D03*
X4572000Y3556000D03*
Y3683000D03*
Y3810000D03*
G54D16*
X1141730Y-2301000D03*
X4762500Y1016000D03*
X5778500Y1270000D03*
X8128000Y3111500D03*
X10985500Y2667000D03*
Y3048000D03*
X11874500Y2730500D03*
X12255500Y2794000D03*
G54D17*
G01X-538480Y730250D02*
Y1047750D01*
X-585720Y984250D01*
G01Y730250D02*
X-491240D01*
G01X-310130Y777860D02*
X-286520Y751410D01*
X-258960Y735540D01*
X-223520Y730250D01*
X-188080Y740830D01*
X-160530Y761990D01*
X-140840Y799040D01*
X-136910Y841370D01*
X-144780Y883700D01*
X-164470Y910170D01*
X-192030Y931330D01*
X-219580Y936620D01*
X-247140Y931330D01*
X-282570Y910170D01*
X-270760Y1047750D01*
X-164470D01*
G01X-250000Y0D02*
X-631000D01*
G01X-381000Y492130D02*
Y0D01*
G01X-443500Y400000D02*
X-381000Y0D01*
X-318500Y400000D01*
X-443500D01*
G01X-381000Y1285870D02*
Y1500000D01*
G01X-318500Y1100000D02*
X-381000Y1500000D01*
X-443500Y1100000D01*
X-318500D01*
G01X-250000Y1500000D02*
X-631000D01*
G01X0Y-6428500D02*
Y-63500D01*
X12598400D01*
Y-6428500D01*
X0D01*
G01Y-5793500D02*
X12598400D01*
G01X0Y-5158500D02*
X12598400D01*
G01X0Y-4523500D02*
X12598400D01*
G01X0Y-3253500D02*
X12598400D01*
G01X0Y-3888500D02*
X12598400D01*
G01X0Y-2618500D02*
X12598400D01*
G01X279520Y-1824750D02*
Y-1507250D01*
X429140D01*
G01X374010Y-1660700D02*
X279520D01*
G01X622050Y-1507250D02*
X716530D01*
G01X669290D02*
Y-1824750D01*
G01X622050D02*
X716530D01*
G01X1007870Y-1666000D02*
X1086620D01*
Y-1761250D01*
X1062990Y-1793010D01*
X1035430Y-1814170D01*
X996060Y-1824750D01*
X956690Y-1814170D01*
X929130Y-1793010D01*
X905510Y-1761250D01*
X889760Y-1724210D01*
X881880Y-1681880D01*
Y-1644830D01*
X889760Y-1613090D01*
X905510Y-1576040D01*
X929130Y-1544290D01*
X952750Y-1523130D01*
X984250Y-1507250D01*
X1011810D01*
X1043300Y-1517830D01*
X1066930Y-1539000D01*
G01X1212600Y-1507250D02*
Y-1734790D01*
X1228340Y-1782430D01*
X1259840Y-1814170D01*
X1299210Y-1824750D01*
X1338580Y-1814170D01*
X1370080Y-1782430D01*
X1385820Y-1734790D01*
Y-1507250D01*
G01X1535430Y-1824750D02*
Y-1507250D01*
X1633850D01*
X1665350Y-1523130D01*
X1685040Y-1544290D01*
X1692910Y-1586630D01*
X1685040Y-1628960D01*
X1661410Y-1655410D01*
X1633850Y-1671300D01*
X1535430D01*
G01X1633850D02*
X1692910Y-1824750D01*
G01X2007870D02*
X1850390D01*
Y-1507250D01*
X2007870D01*
G01X1944880Y-1660700D02*
X1850390D01*
G01X0Y-1983500D02*
X12598400D01*
G01X0Y-1348500D02*
X12598400D01*
G01X0Y-713500D02*
X12598400D01*
G01X0Y1500000D02*
Y0D01*
X18000000D01*
Y1500000D01*
G03X15500000Y4000000I-2500000J0D01*
G01X2500000D01*
G03X0Y1500000I0J-2500000D01*
G01Y250000D02*
Y5330000D01*
G01X579520Y3578140D02*
X647790Y3179080D01*
X704500Y3579940D01*
X579520Y3578140D01*
G01X647790Y3179080D02*
X640740Y3667130D01*
G01X241300Y3905250D02*
Y4222750D01*
X339720D01*
X371220Y4206870D01*
X390910Y4185710D01*
X398780Y4143370D01*
X390910Y4101040D01*
X367280Y4074590D01*
X339720Y4058700D01*
X241300D01*
G01X339720D02*
X398780Y3905250D01*
G01X560190Y4169830D02*
X583820Y4201580D01*
X611380Y4217460D01*
X642880Y4222750D01*
X682240Y4212170D01*
X709810Y4185710D01*
X717680Y4153960D01*
X713740Y4122200D01*
X697990Y4095750D01*
X619250Y4042830D01*
X583820Y4005790D01*
X560190Y3952860D01*
X552320Y3905250D01*
X717680D01*
G01X863350Y3952860D02*
X886960Y3926410D01*
X914520Y3910540D01*
X949960Y3905250D01*
X985400Y3915830D01*
X1012950Y3936990D01*
X1032640Y3974040D01*
X1036570Y4016370D01*
X1028700Y4058700D01*
X1009010Y4085170D01*
X981450Y4106330D01*
X953900Y4111620D01*
X926340Y4106330D01*
X890910Y4085170D01*
X902720Y4222750D01*
X1009010D01*
G01X8726810Y5080000D02*
X0D01*
G01X400000Y5142500D02*
X0Y5080000D01*
X400000Y5017500D01*
Y5142500D01*
G01X1948810Y-1189750D02*
X2047240Y-872250D01*
X2145670Y-1189750D01*
G01X2110230Y-1078630D02*
X1984240D01*
G01X2283460Y-872250D02*
Y-1189750D01*
X2440940D01*
G01X2598420Y-872250D02*
Y-1189750D01*
X2755900D01*
G01X3220470Y-872250D02*
Y-1099790D01*
X3236210Y-1147430D01*
X3267710Y-1179170D01*
X3307080Y-1189750D01*
X3346450Y-1179170D01*
X3377950Y-1147430D01*
X3393690Y-1099790D01*
Y-872250D01*
G01X3531490Y-1189750D02*
Y-872250D01*
X3712590Y-1189750D01*
Y-872250D01*
G01X3889760D02*
X3984240D01*
G01X3937000D02*
Y-1189750D01*
G01X3889760D02*
X3984240D01*
G01X4251960Y-872250D02*
Y-1189750D01*
G01X4161410Y-872250D02*
X4342510D01*
G01X4484240Y-1147430D02*
X4515740Y-1173880D01*
X4551170Y-1189750D01*
X4582670D01*
X4614160Y-1173880D01*
X4637790Y-1147430D01*
X4649600Y-1110370D01*
X4641730Y-1073340D01*
X4622040Y-1041590D01*
X4586600Y-1020410D01*
X4539360Y-1009830D01*
X4511800Y-988670D01*
X4499990Y-951630D01*
X4507870Y-914580D01*
X4527550Y-888130D01*
X4555110Y-872250D01*
X4582670D01*
X4610230Y-882830D01*
X4633850Y-909290D01*
G01X5098410Y-1189750D02*
X5196840Y-872250D01*
X5295270Y-1189750D01*
G01X5259830Y-1078630D02*
X5133840D01*
G01X5433060Y-1189750D02*
Y-872250D01*
X5531480D01*
X5562980Y-888130D01*
X5582670Y-909290D01*
X5590540Y-951630D01*
X5582670Y-993960D01*
X5559040Y-1020410D01*
X5531480Y-1036300D01*
X5433060D01*
G01X5531480D02*
X5590540Y-1189750D01*
G01X5905500D02*
X5748020D01*
Y-872250D01*
X5905500D01*
G01X5842510Y-1025700D02*
X5748020D01*
G01X6409440Y-872250D02*
X6503920D01*
G01X6456680D02*
Y-1189750D01*
G01X6409440D02*
X6503920D01*
G01X6681090D02*
Y-872250D01*
X6862190Y-1189750D01*
Y-872250D01*
G01X7299190Y-1189750D02*
Y-872250D01*
X7401560Y-1136830D01*
X7503930Y-872250D01*
Y-1189750D01*
G01X7669280Y-872250D02*
X7763760D01*
G01X7716520D02*
Y-1189750D01*
G01X7669280D02*
X7763760D01*
G01X7952740Y-872250D02*
Y-1189750D01*
X8110220D01*
G01X8267700Y-872250D02*
Y-1189750D01*
X8425180D01*
G01X8614160Y-872250D02*
X8708640D01*
G01X8661400D02*
Y-1189750D01*
G01X8614160D02*
X8708640D01*
G01X8873990D02*
Y-872250D01*
X8976360Y-1136830D01*
X9078730Y-872250D01*
Y-1189750D01*
G01X9370060D02*
X9212580D01*
Y-872250D01*
X9370060D01*
G01X9307070Y-1025700D02*
X9212580D01*
G01X9606280Y-872250D02*
Y-1189750D01*
G01X9515730Y-872250D02*
X9696830D01*
G01X9999980Y-1189750D02*
X9842500D01*
Y-872250D01*
X9999980D01*
G01X9936990Y-1025700D02*
X9842500D01*
G01X10157460Y-1189750D02*
Y-872250D01*
X10255880D01*
X10287380Y-888130D01*
X10307070Y-909290D01*
X10314940Y-951630D01*
X10307070Y-993960D01*
X10283440Y-1020410D01*
X10255880Y-1036300D01*
X10157460D01*
G01X10255880D02*
X10314940Y-1189750D01*
G01X10468480Y-1147430D02*
X10499980Y-1173880D01*
X10535410Y-1189750D01*
X10566910D01*
X10598400Y-1173880D01*
X10622030Y-1147430D01*
X10633840Y-1110370D01*
X10625970Y-1073340D01*
X10606280Y-1041590D01*
X10570840Y-1020410D01*
X10523600Y-1009830D01*
X10496040Y-988670D01*
X10484230Y-951630D01*
X10492110Y-914580D01*
X10511790Y-888130D01*
X10539350Y-872250D01*
X10566910D01*
X10594470Y-882830D01*
X10618090Y-909290D01*
G01X2283460Y-1348500D02*
Y-6428500D01*
G01X2877940Y-1824750D02*
Y-1507250D01*
X3027560D01*
G01X2972430Y-1660700D02*
X2877940D01*
G01X3220470Y-1507250D02*
X3314950D01*
G01X3267710D02*
Y-1824750D01*
G01X3220470D02*
X3314950D01*
G01X3492120D02*
Y-1507250D01*
X3673220Y-1824750D01*
Y-1507250D01*
G01X3850390D02*
X3944870D01*
G01X3897630D02*
Y-1824750D01*
G01X3850390D02*
X3944870D01*
G01X4129910Y-1782430D02*
X4161410Y-1808880D01*
X4196840Y-1824750D01*
X4228340D01*
X4259830Y-1808880D01*
X4283460Y-1782430D01*
X4295270Y-1745370D01*
X4287400Y-1708340D01*
X4267710Y-1676590D01*
X4232270Y-1655410D01*
X4185030Y-1644830D01*
X4157470Y-1623670D01*
X4145660Y-1586630D01*
X4153540Y-1549580D01*
X4173220Y-1523130D01*
X4200780Y-1507250D01*
X4228340D01*
X4255900Y-1517830D01*
X4279520Y-1544290D01*
G01X4444870Y-1824750D02*
Y-1507250D01*
G01X4610230D02*
Y-1824750D01*
G01Y-1666000D02*
X4444870D01*
G01X4921250Y-1824750D02*
X4763770D01*
Y-1507250D01*
X4921250D01*
G01X4858260Y-1660700D02*
X4763770D01*
G01X5070860Y-1824750D02*
Y-1507250D01*
X5149590D01*
X5181090Y-1523130D01*
X5204710Y-1544290D01*
X5224400Y-1576040D01*
X5240150Y-1613090D01*
X5244080Y-1666000D01*
X5240150Y-1718920D01*
X5224400Y-1755960D01*
X5204710Y-1787720D01*
X5181090Y-1808880D01*
X5149590Y-1824750D01*
X5070860D01*
G01X5354320Y-1930580D02*
X5590540D01*
G01X5704710Y-1782430D02*
X5736210Y-1808880D01*
X5771640Y-1824750D01*
X5803140D01*
X5834630Y-1808880D01*
X5858260Y-1782430D01*
X5870070Y-1745370D01*
X5862200Y-1708340D01*
X5842510Y-1676590D01*
X5807070Y-1655410D01*
X5759830Y-1644830D01*
X5732270Y-1623670D01*
X5720460Y-1586630D01*
X5728340Y-1549580D01*
X5748020Y-1523130D01*
X5775580Y-1507250D01*
X5803140D01*
X5830700Y-1517830D01*
X5854320Y-1544290D01*
G01X6055110Y-1507250D02*
X6149590D01*
G01X6102350D02*
Y-1824750D01*
G01X6055110D02*
X6149590D01*
G01X6342500Y-1507250D02*
X6492120D01*
X6342500Y-1824750D01*
X6492120D01*
G01X6811010D02*
X6653530D01*
Y-1507250D01*
X6811010D01*
G01X6748020Y-1660700D02*
X6653530D01*
G01X2275590Y-539750D02*
Y-222250D01*
X2354320D01*
X2385820Y-238130D01*
X2409440Y-259290D01*
X2429130Y-291040D01*
X2444880Y-328090D01*
X2448810Y-381000D01*
X2444880Y-433920D01*
X2429130Y-470960D01*
X2409440Y-502720D01*
X2385820Y-523880D01*
X2354320Y-539750D01*
X2275590D01*
G01X2598420D02*
Y-222250D01*
X2696840D01*
X2728340Y-238130D01*
X2748030Y-259290D01*
X2755900Y-301630D01*
X2748030Y-343960D01*
X2724400Y-370410D01*
X2696840Y-386300D01*
X2598420D01*
G01X2696840D02*
X2755900Y-539750D01*
G01X2944880Y-222250D02*
X3039360D01*
G01X2992120D02*
Y-539750D01*
G01X2944880D02*
X3039360D01*
G01X3228340Y-222250D02*
Y-539750D01*
X3385820D01*
G01X3543300Y-222250D02*
Y-539750D01*
X3700780D01*
G01X4338570Y-248710D02*
X4314950Y-232830D01*
X4287400Y-222250D01*
X4255900D01*
X4220460Y-238130D01*
X4192910Y-264580D01*
X4173220Y-296340D01*
X4157470Y-349250D01*
X4153530Y-396880D01*
X4161410Y-444500D01*
X4173220Y-476250D01*
X4196840Y-508010D01*
X4224400Y-529170D01*
X4251960Y-539750D01*
X4279520D01*
X4307080Y-529170D01*
X4330700Y-513300D01*
X4350390Y-492140D01*
G01X4484240Y-539750D02*
Y-222250D01*
G01X4649600D02*
Y-539750D01*
G01Y-381000D02*
X4484240D01*
G01X4783450Y-539750D02*
X4881880Y-222250D01*
X4980310Y-539750D01*
G01X4944870Y-428630D02*
X4818880D01*
G01X5118100Y-539750D02*
Y-222250D01*
X5216520D01*
X5248020Y-238130D01*
X5267710Y-259290D01*
X5275580Y-301630D01*
X5267710Y-343960D01*
X5244080Y-370410D01*
X5216520Y-386300D01*
X5118100D01*
G01X5216520D02*
X5275580Y-539750D01*
G01X5511800Y-222250D02*
Y-539750D01*
G01X5421250Y-222250D02*
X5602350D01*
G01X5826760Y-550330D02*
X5818880Y-545040D01*
Y-534460D01*
X5826760Y-529170D01*
X5834640Y-534460D01*
Y-545040D01*
X5826760Y-550330D01*
G01Y-407470D02*
X5818880Y-402170D01*
Y-391590D01*
X5826760Y-386300D01*
X5834640Y-391590D01*
Y-402170D01*
X5826760Y-407470D01*
G01X6456680Y-222250D02*
Y-539750D01*
G01X6366130Y-222250D02*
X6547230D01*
G01X6771640Y-539750D02*
X6740140Y-534460D01*
X6712590Y-513300D01*
X6688960Y-481540D01*
X6673210Y-444500D01*
X6665340Y-402170D01*
Y-359830D01*
X6673210Y-317500D01*
X6688960Y-280460D01*
X6712590Y-248710D01*
X6740140Y-227540D01*
X6771640Y-222250D01*
X6803130Y-227540D01*
X6830690Y-248710D01*
X6854320Y-280460D01*
X6870070Y-317500D01*
X6877940Y-359830D01*
Y-402170D01*
X6870070Y-444500D01*
X6854320Y-481540D01*
X6830690Y-513300D01*
X6803130Y-534460D01*
X6771640Y-539750D01*
G01X7007860D02*
Y-222250D01*
X7102350D01*
X7133840Y-238130D01*
X7157470Y-275170D01*
X7165340Y-317500D01*
X7157470Y-359830D01*
X7137780Y-391590D01*
X7102350Y-407470D01*
X7007860D01*
G01X7716520Y-222250D02*
Y-539750D01*
G01X7661400Y-328090D02*
X7771640D01*
G01X8031480Y-539750D02*
X8007860Y-534460D01*
X7984240Y-513300D01*
X7968480Y-476250D01*
X7960610Y-433920D01*
X7968480Y-391590D01*
X7984240Y-354540D01*
X8007860Y-333380D01*
X8031480Y-328090D01*
X8055100Y-333380D01*
X8078720Y-354540D01*
X8094470Y-391590D01*
X8098410Y-433920D01*
X8094470Y-476250D01*
X8078720Y-513300D01*
X8055100Y-534460D01*
X8031480Y-539750D01*
G01X8692890Y-370410D02*
X8708640Y-354540D01*
X8720450Y-328090D01*
X8728330Y-291040D01*
X8720450Y-259290D01*
X8704710Y-238130D01*
X8677150Y-222250D01*
X8570850D01*
Y-539750D01*
X8700770D01*
X8728330Y-518590D01*
X8744080Y-486830D01*
X8751950Y-449790D01*
X8744080Y-412760D01*
X8720450Y-381000D01*
X8692890Y-370410D01*
X8570850D01*
G01X8976360Y-539750D02*
X8944860Y-534460D01*
X8917310Y-513300D01*
X8893680Y-481540D01*
X8877930Y-444500D01*
X8870060Y-402170D01*
Y-359830D01*
X8877930Y-317500D01*
X8893680Y-280460D01*
X8917310Y-248710D01*
X8944860Y-227540D01*
X8976360Y-222250D01*
X9007850Y-227540D01*
X9035410Y-248710D01*
X9059040Y-280460D01*
X9074790Y-317500D01*
X9082660Y-359830D01*
Y-402170D01*
X9074790Y-444500D01*
X9059040Y-481540D01*
X9035410Y-513300D01*
X9007850Y-534460D01*
X8976360Y-539750D01*
G01X9291320Y-222250D02*
Y-539750D01*
G01X9200770Y-222250D02*
X9381870D01*
G01X9606280D02*
Y-539750D01*
G01X9515730Y-222250D02*
X9696830D01*
G01X9921240Y-539750D02*
X9889740Y-534460D01*
X9862190Y-513300D01*
X9838560Y-481540D01*
X9822810Y-444500D01*
X9814940Y-402170D01*
Y-359830D01*
X9822810Y-317500D01*
X9838560Y-280460D01*
X9862190Y-248710D01*
X9889740Y-227540D01*
X9921240Y-222250D01*
X9952730Y-227540D01*
X9980290Y-248710D01*
X10003920Y-280460D01*
X10019670Y-317500D01*
X10027540Y-359830D01*
Y-402170D01*
X10019670Y-444500D01*
X10003920Y-481540D01*
X9980290Y-513300D01*
X9952730Y-534460D01*
X9921240Y-539750D01*
G01X10133830D02*
Y-222250D01*
X10236200Y-486830D01*
X10338570Y-222250D01*
Y-539750D01*
G01X2500000Y4250000D02*
Y4822000D01*
G01X5170810Y4572000D02*
X2500000D01*
G01X2900000Y4634500D02*
X2500000Y4572000D01*
X2900000Y4509500D01*
Y4634500D01*
G01X4440940Y-6206250D02*
X4464550Y-6243300D01*
X4496050Y-6264460D01*
X4531490Y-6269750D01*
X4562990Y-6264460D01*
X4594480Y-6238010D01*
X4614160Y-6206250D01*
X4618100Y-6174500D01*
X4610230Y-6137470D01*
X4582670Y-6111000D01*
X4555110Y-6100410D01*
X4519670D01*
G01X4555110D02*
X4578730Y-6084540D01*
X4598420Y-6058090D01*
X4606290Y-6026340D01*
X4598420Y-5994580D01*
X4578730Y-5968130D01*
X4543300Y-5952250D01*
X4507870Y-5957540D01*
X4472430Y-5978710D01*
G01X4842510Y-6280330D02*
X4834630Y-6275040D01*
Y-6264460D01*
X4842510Y-6259170D01*
X4850390Y-6264460D01*
Y-6275040D01*
X4842510Y-6280330D01*
G01X5157470Y-5952250D02*
X5125970Y-5962830D01*
X5102350Y-5989290D01*
X5086600Y-6021040D01*
X5074790Y-6063380D01*
X5070860Y-6111000D01*
X5074790Y-6158630D01*
X5086600Y-6200960D01*
X5102350Y-6232720D01*
X5125970Y-6259170D01*
X5157470Y-6269750D01*
X5188960Y-6259170D01*
X5212590Y-6232720D01*
X5228340Y-6200960D01*
X5240150Y-6158630D01*
X5244080Y-6111000D01*
X5240150Y-6063380D01*
X5228340Y-6021040D01*
X5212590Y-5989290D01*
X5188960Y-5962830D01*
X5157470Y-5952250D01*
G01X4055110Y-5634750D02*
Y-5317250D01*
X4007870Y-5380750D01*
G01Y-5634750D02*
X4102350D01*
G01X4370070Y-5645330D02*
X4362190Y-5640040D01*
Y-5629460D01*
X4370070Y-5624170D01*
X4377950Y-5629460D01*
Y-5640040D01*
X4370070Y-5645330D01*
G01X4685030Y-5317250D02*
X4653530Y-5327830D01*
X4629910Y-5354290D01*
X4614160Y-5386040D01*
X4602350Y-5428380D01*
X4598420Y-5476000D01*
X4602350Y-5523630D01*
X4614160Y-5565960D01*
X4629910Y-5597720D01*
X4653530Y-5624170D01*
X4685030Y-5634750D01*
X4716520Y-5624170D01*
X4740150Y-5597720D01*
X4755900Y-5565960D01*
X4767710Y-5523630D01*
X4771640Y-5476000D01*
X4767710Y-5428380D01*
X4755900Y-5386040D01*
X4740150Y-5354290D01*
X4716520Y-5327830D01*
X4685030Y-5317250D01*
G01X4925180Y-5502470D02*
X4952750Y-5465410D01*
X4976370Y-5444250D01*
X5007870Y-5433670D01*
X5035430Y-5444250D01*
X5055110Y-5465410D01*
X5070860Y-5497170D01*
X5074800Y-5534210D01*
X5070860Y-5565960D01*
X5055110Y-5597720D01*
X5031480Y-5624170D01*
X5003930Y-5634750D01*
X4972430Y-5624170D01*
X4944870Y-5592430D01*
X4929120Y-5544790D01*
X4925180Y-5491880D01*
X4933060Y-5423090D01*
X4944870Y-5386040D01*
X4964550Y-5349000D01*
X4992110Y-5322540D01*
X5019670Y-5317250D01*
X5047230Y-5327830D01*
X5066920Y-5354290D01*
G01X5240140Y-5502470D02*
X5267710Y-5465410D01*
X5291330Y-5444250D01*
X5322830Y-5433670D01*
X5350390Y-5444250D01*
X5370070Y-5465410D01*
X5385820Y-5497170D01*
X5389760Y-5534210D01*
X5385820Y-5565960D01*
X5370070Y-5597720D01*
X5346440Y-5624170D01*
X5318890Y-5634750D01*
X5287390Y-5624170D01*
X5259830Y-5592430D01*
X5244080Y-5544790D01*
X5240140Y-5491880D01*
X5248020Y-5423090D01*
X5259830Y-5386040D01*
X5279510Y-5349000D01*
X5307070Y-5322540D01*
X5334630Y-5317250D01*
X5362190Y-5327830D01*
X5381880Y-5354290D01*
G01X5629910Y-5634750D02*
X5657470Y-5629460D01*
X5688960Y-5613590D01*
X5708650Y-5587140D01*
X5716520Y-5550080D01*
X5708650Y-5513050D01*
X5685030Y-5481300D01*
X5649590Y-5465410D01*
X5610230D01*
X5586600Y-5454830D01*
X5566910Y-5428380D01*
X5559040Y-5391340D01*
X5570860Y-5354290D01*
X5598410Y-5327830D01*
X5629910Y-5317250D01*
X5661400Y-5327830D01*
X5688960Y-5354290D01*
X5700780Y-5391340D01*
X5692900Y-5428380D01*
X5673220Y-5454830D01*
X5649590Y-5465410D01*
X5610230D01*
X5574790Y-5481300D01*
X5551170Y-5513050D01*
X5543300Y-5550080D01*
X5551170Y-5587140D01*
X5570860Y-5613590D01*
X5602350Y-5629460D01*
X5629910Y-5634750D01*
G01X4527550Y-4999750D02*
Y-4682250D01*
X4480310Y-4745750D01*
G01Y-4999750D02*
X4574790D01*
G01X4842510Y-5010330D02*
X4834630Y-5005040D01*
Y-4994460D01*
X4842510Y-4989170D01*
X4850390Y-4994460D01*
Y-5005040D01*
X4842510Y-5010330D01*
G01X5157470Y-4682250D02*
X5125970Y-4692830D01*
X5102350Y-4719290D01*
X5086600Y-4751040D01*
X5074790Y-4793380D01*
X5070860Y-4841000D01*
X5074790Y-4888630D01*
X5086600Y-4930960D01*
X5102350Y-4962720D01*
X5125970Y-4989170D01*
X5157470Y-4999750D01*
X5188960Y-4989170D01*
X5212590Y-4962720D01*
X5228340Y-4930960D01*
X5240150Y-4888630D01*
X5244080Y-4841000D01*
X5240150Y-4793380D01*
X5228340Y-4751040D01*
X5212590Y-4719290D01*
X5188960Y-4692830D01*
X5157470Y-4682250D01*
G01X4527550Y-4364750D02*
Y-4047250D01*
X4480310Y-4110750D01*
G01Y-4364750D02*
X4574790D01*
G01X4842510Y-4375330D02*
X4834630Y-4370040D01*
Y-4359460D01*
X4842510Y-4354170D01*
X4850390Y-4359460D01*
Y-4370040D01*
X4842510Y-4375330D01*
G01X5157470Y-4047250D02*
X5125970Y-4057830D01*
X5102350Y-4084290D01*
X5086600Y-4116040D01*
X5074790Y-4158380D01*
X5070860Y-4206000D01*
X5074790Y-4253630D01*
X5086600Y-4295960D01*
X5102350Y-4327720D01*
X5125970Y-4354170D01*
X5157470Y-4364750D01*
X5188960Y-4354170D01*
X5212590Y-4327720D01*
X5228340Y-4295960D01*
X5240150Y-4253630D01*
X5244080Y-4206000D01*
X5240150Y-4158380D01*
X5228340Y-4116040D01*
X5212590Y-4084290D01*
X5188960Y-4057830D01*
X5157470Y-4047250D01*
G01X4055110Y-2777250D02*
X4023610Y-2787830D01*
X3999990Y-2814290D01*
X3984240Y-2846040D01*
X3972430Y-2888380D01*
X3968500Y-2936000D01*
X3972430Y-2983630D01*
X3984240Y-3025960D01*
X3999990Y-3057720D01*
X4023610Y-3084170D01*
X4055110Y-3094750D01*
X4086600Y-3084170D01*
X4110230Y-3057720D01*
X4125980Y-3025960D01*
X4137790Y-2983630D01*
X4141720Y-2936000D01*
X4137790Y-2888380D01*
X4125980Y-2846040D01*
X4110230Y-2814290D01*
X4086600Y-2787830D01*
X4055110Y-2777250D01*
G01X4370070Y-3105330D02*
X4362190Y-3100040D01*
Y-3089460D01*
X4370070Y-3084170D01*
X4377950Y-3089460D01*
Y-3100040D01*
X4370070Y-3105330D01*
G01X4677150Y-3094750D02*
X4685030Y-3025960D01*
X4696840Y-2967760D01*
X4712590Y-2914830D01*
X4732270Y-2856630D01*
X4763770Y-2777250D01*
X4606290D01*
G01X4999990Y-3094750D02*
X5027550Y-3089460D01*
X5059040Y-3073590D01*
X5078730Y-3047140D01*
X5086600Y-3010080D01*
X5078730Y-2973050D01*
X5055110Y-2941300D01*
X5019670Y-2925410D01*
X4980310D01*
X4956680Y-2914830D01*
X4936990Y-2888380D01*
X4929120Y-2851340D01*
X4940940Y-2814290D01*
X4968490Y-2787830D01*
X4999990Y-2777250D01*
X5031480Y-2787830D01*
X5059040Y-2814290D01*
X5070860Y-2851340D01*
X5062980Y-2888380D01*
X5043300Y-2914830D01*
X5019670Y-2925410D01*
X4980310D01*
X4944870Y-2941300D01*
X4921250Y-2973050D01*
X4913380Y-3010080D01*
X4921250Y-3047140D01*
X4940940Y-3073590D01*
X4972430Y-3089460D01*
X4999990Y-3094750D01*
G01X5307070D02*
X5314950Y-3025960D01*
X5326760Y-2967760D01*
X5342510Y-2914830D01*
X5362190Y-2856630D01*
X5393690Y-2777250D01*
X5236210D01*
G01X5677150Y-3094750D02*
Y-2777250D01*
X5531480Y-3004790D01*
X5728340D01*
G01X4055110Y-3412250D02*
X4023610Y-3422830D01*
X3999990Y-3449290D01*
X3984240Y-3481040D01*
X3972430Y-3523380D01*
X3968500Y-3571000D01*
X3972430Y-3618630D01*
X3984240Y-3660960D01*
X3999990Y-3692720D01*
X4023610Y-3719170D01*
X4055110Y-3729750D01*
X4086600Y-3719170D01*
X4110230Y-3692720D01*
X4125980Y-3660960D01*
X4137790Y-3618630D01*
X4141720Y-3571000D01*
X4137790Y-3523380D01*
X4125980Y-3481040D01*
X4110230Y-3449290D01*
X4086600Y-3422830D01*
X4055110Y-3412250D01*
G01X4370070Y-3740330D02*
X4362190Y-3735040D01*
Y-3724460D01*
X4370070Y-3719170D01*
X4377950Y-3724460D01*
Y-3735040D01*
X4370070Y-3740330D01*
G01X4618100Y-3692720D02*
X4645660Y-3719170D01*
X4677150Y-3729750D01*
X4708650Y-3719170D01*
X4736210Y-3687430D01*
X4755900Y-3639790D01*
X4763770Y-3592170D01*
Y-3533960D01*
X4755900Y-3486340D01*
X4736210Y-3444000D01*
X4712590Y-3422830D01*
X4685030Y-3412250D01*
X4653530Y-3422830D01*
X4629910Y-3444000D01*
X4614160Y-3475750D01*
X4606290Y-3518090D01*
X4614160Y-3555120D01*
X4633850Y-3592170D01*
X4657470Y-3613340D01*
X4685030Y-3618630D01*
X4716520Y-3608050D01*
X4740150Y-3581590D01*
X4763770Y-3533960D01*
G01X4999990Y-3729750D02*
Y-3412250D01*
X4952750Y-3475750D01*
G01Y-3729750D02*
X5047230D01*
G01X5362190D02*
Y-3412250D01*
X5216520Y-3639790D01*
X5413380D01*
G01X5677150Y-3729750D02*
Y-3412250D01*
X5531480Y-3639790D01*
X5728340D01*
G01X4055110Y-2142250D02*
X4023610Y-2152830D01*
X3999990Y-2179290D01*
X3984240Y-2211040D01*
X3972430Y-2253380D01*
X3968500Y-2301000D01*
X3972430Y-2348630D01*
X3984240Y-2390960D01*
X3999990Y-2422720D01*
X4023610Y-2449170D01*
X4055110Y-2459750D01*
X4086600Y-2449170D01*
X4110230Y-2422720D01*
X4125980Y-2390960D01*
X4137790Y-2348630D01*
X4141720Y-2301000D01*
X4137790Y-2253380D01*
X4125980Y-2211040D01*
X4110230Y-2179290D01*
X4086600Y-2152830D01*
X4055110Y-2142250D01*
G01X4370070Y-2470330D02*
X4362190Y-2465040D01*
Y-2454460D01*
X4370070Y-2449170D01*
X4377950Y-2454460D01*
Y-2465040D01*
X4370070Y-2470330D01*
G01X4598420Y-2396250D02*
X4622030Y-2433300D01*
X4653530Y-2454460D01*
X4688970Y-2459750D01*
X4720470Y-2454460D01*
X4751960Y-2428010D01*
X4771640Y-2396250D01*
X4775580Y-2364500D01*
X4767710Y-2327470D01*
X4740150Y-2301000D01*
X4712590Y-2290410D01*
X4677150D01*
G01X4712590D02*
X4736210Y-2274540D01*
X4755900Y-2248090D01*
X4763770Y-2216340D01*
X4755900Y-2184580D01*
X4736210Y-2158130D01*
X4700780Y-2142250D01*
X4665350Y-2147540D01*
X4629910Y-2168710D01*
G01X4913380Y-2396250D02*
X4936990Y-2433300D01*
X4968490Y-2454460D01*
X5003930Y-2459750D01*
X5035430Y-2454460D01*
X5066920Y-2428010D01*
X5086600Y-2396250D01*
X5090540Y-2364500D01*
X5082670Y-2327470D01*
X5055110Y-2301000D01*
X5027550Y-2290410D01*
X4992110D01*
G01X5027550D02*
X5051170Y-2274540D01*
X5070860Y-2248090D01*
X5078730Y-2216340D01*
X5070860Y-2184580D01*
X5051170Y-2158130D01*
X5015740Y-2142250D01*
X4980310Y-2147540D01*
X4944870Y-2168710D01*
G01X5314950Y-2142250D02*
X5283450Y-2152830D01*
X5259830Y-2179290D01*
X5244080Y-2211040D01*
X5232270Y-2253380D01*
X5228340Y-2301000D01*
X5232270Y-2348630D01*
X5244080Y-2390960D01*
X5259830Y-2422720D01*
X5283450Y-2449170D01*
X5314950Y-2459750D01*
X5346440Y-2449170D01*
X5370070Y-2422720D01*
X5385820Y-2390960D01*
X5397630Y-2348630D01*
X5401560Y-2301000D01*
X5397630Y-2253380D01*
X5385820Y-2211040D01*
X5370070Y-2179290D01*
X5346440Y-2152830D01*
X5314950Y-2142250D01*
G01X5555100Y-2195170D02*
X5578730Y-2163420D01*
X5606290Y-2147540D01*
X5637790Y-2142250D01*
X5677150Y-2152830D01*
X5704720Y-2179290D01*
X5712590Y-2211040D01*
X5708650Y-2242800D01*
X5692900Y-2269250D01*
X5614160Y-2322170D01*
X5578730Y-2359210D01*
X5555100Y-2412140D01*
X5547230Y-2459750D01*
X5712590D01*
G01X5527040Y4413250D02*
Y4730750D01*
X5479800Y4667250D01*
G01Y4413250D02*
X5574280D01*
G01X5755390Y4476750D02*
X5779000Y4439700D01*
X5810500Y4418540D01*
X5845940Y4413250D01*
X5877440Y4418540D01*
X5908930Y4444990D01*
X5928610Y4476750D01*
X5932550Y4508500D01*
X5924680Y4545530D01*
X5897120Y4572000D01*
X5869560Y4582590D01*
X5834120D01*
G01X5869560D02*
X5893180Y4598460D01*
X5912870Y4624910D01*
X5920740Y4656660D01*
X5912870Y4688420D01*
X5893180Y4714870D01*
X5857750Y4730750D01*
X5822320Y4725460D01*
X5786880Y4704290D01*
G01X6156960Y4730750D02*
X6125460Y4720170D01*
X6101840Y4693710D01*
X6086090Y4661960D01*
X6074280Y4619620D01*
X6070350Y4572000D01*
X6074280Y4524370D01*
X6086090Y4482040D01*
X6101840Y4450280D01*
X6125460Y4423830D01*
X6156960Y4413250D01*
X6188450Y4423830D01*
X6212080Y4450280D01*
X6227830Y4482040D01*
X6239640Y4524370D01*
X6243570Y4572000D01*
X6239640Y4619620D01*
X6227830Y4661960D01*
X6212080Y4693710D01*
X6188450Y4720170D01*
X6156960Y4730750D01*
G01X6513190Y4572000D02*
X15500000D01*
G01X7507860Y-6269750D02*
Y-5952250D01*
X7688960Y-6269750D01*
Y-5952250D01*
G01X7913370Y-6269750D02*
X7881870Y-6264460D01*
X7854320Y-6243300D01*
X7830690Y-6211540D01*
X7814940Y-6174500D01*
X7807070Y-6132170D01*
Y-6089830D01*
X7814940Y-6047500D01*
X7830690Y-6010460D01*
X7854320Y-5978710D01*
X7881870Y-5957540D01*
X7913370Y-5952250D01*
X7944860Y-5957540D01*
X7972420Y-5978710D01*
X7996050Y-6010460D01*
X8011800Y-6047500D01*
X8019670Y-6089830D01*
Y-6132170D01*
X8011800Y-6174500D01*
X7996050Y-6211540D01*
X7972420Y-6243300D01*
X7944860Y-6264460D01*
X7913370Y-6269750D01*
G01X8137780D02*
Y-5952250D01*
X8318880Y-6269750D01*
Y-5952250D01*
G01X8492110Y-6163920D02*
X8594470D01*
G01X8779510Y-6269750D02*
Y-5952250D01*
X8874000D01*
X8905490Y-5968130D01*
X8929120Y-6005170D01*
X8936990Y-6047500D01*
X8929120Y-6089830D01*
X8909430Y-6121590D01*
X8874000Y-6137470D01*
X8779510D01*
G01X9094470Y-5952250D02*
Y-6269750D01*
X9251950D01*
G01X9389740D02*
X9488170Y-5952250D01*
X9586600Y-6269750D01*
G01X9551160Y-6158630D02*
X9425170D01*
G01X9803130Y-5952250D02*
Y-6269750D01*
G01X9712580Y-5952250D02*
X9893680D01*
G01X10196830Y-6269750D02*
X10039350D01*
Y-5952250D01*
X10196830D01*
G01X10133840Y-6105700D02*
X10039350D01*
G01X10346440Y-6269750D02*
Y-5952250D01*
X10425170D01*
X10456670Y-5968130D01*
X10480290Y-5989290D01*
X10499980Y-6021040D01*
X10515730Y-6058090D01*
X10519660Y-6111000D01*
X10515730Y-6163920D01*
X10499980Y-6200960D01*
X10480290Y-6232720D01*
X10456670Y-6253880D01*
X10425170Y-6269750D01*
X10346440D01*
G01X7401560Y-1348500D02*
Y-6428500D01*
G01X8149590Y-5634750D02*
Y-5317250D01*
X8244080D01*
X8275570Y-5333130D01*
X8299200Y-5370170D01*
X8307070Y-5412500D01*
X8299200Y-5454830D01*
X8279510Y-5486590D01*
X8244080Y-5502470D01*
X8149590D01*
G01X8464550Y-5317250D02*
Y-5634750D01*
X8622030D01*
G01X8759820D02*
X8858250Y-5317250D01*
X8956680Y-5634750D01*
G01X8921240Y-5523630D02*
X8795250D01*
G01X9173210Y-5317250D02*
Y-5634750D01*
G01X9082660Y-5317250D02*
X9263760D01*
G01X9566910Y-5634750D02*
X9409430D01*
Y-5317250D01*
X9566910D01*
G01X9503920Y-5470700D02*
X9409430D01*
G01X9716520Y-5634750D02*
Y-5317250D01*
X9795250D01*
X9826750Y-5333130D01*
X9850370Y-5354290D01*
X9870060Y-5386040D01*
X9885810Y-5423090D01*
X9889740Y-5476000D01*
X9885810Y-5528920D01*
X9870060Y-5565960D01*
X9850370Y-5597720D01*
X9826750Y-5618880D01*
X9795250Y-5634750D01*
X9716520D01*
G01X8149590Y-4999750D02*
Y-4682250D01*
X8244080D01*
X8275570Y-4698130D01*
X8299200Y-4735170D01*
X8307070Y-4777500D01*
X8299200Y-4819830D01*
X8279510Y-4851590D01*
X8244080Y-4867470D01*
X8149590D01*
G01X8464550Y-4682250D02*
Y-4999750D01*
X8622030D01*
G01X8759820D02*
X8858250Y-4682250D01*
X8956680Y-4999750D01*
G01X8921240Y-4888630D02*
X8795250D01*
G01X9173210Y-4682250D02*
Y-4999750D01*
G01X9082660Y-4682250D02*
X9263760D01*
G01X9566910Y-4999750D02*
X9409430D01*
Y-4682250D01*
X9566910D01*
G01X9503920Y-4835700D02*
X9409430D01*
G01X9716520Y-4999750D02*
Y-4682250D01*
X9795250D01*
X9826750Y-4698130D01*
X9850370Y-4719290D01*
X9870060Y-4751040D01*
X9885810Y-4788090D01*
X9889740Y-4841000D01*
X9885810Y-4893920D01*
X9870060Y-4930960D01*
X9850370Y-4962720D01*
X9826750Y-4983880D01*
X9795250Y-4999750D01*
X9716520D01*
G01X8149590Y-4364750D02*
Y-4047250D01*
X8244080D01*
X8275570Y-4063130D01*
X8299200Y-4100170D01*
X8307070Y-4142500D01*
X8299200Y-4184830D01*
X8279510Y-4216590D01*
X8244080Y-4232470D01*
X8149590D01*
G01X8464550Y-4047250D02*
Y-4364750D01*
X8622030D01*
G01X8759820D02*
X8858250Y-4047250D01*
X8956680Y-4364750D01*
G01X8921240Y-4253630D02*
X8795250D01*
G01X9173210Y-4047250D02*
Y-4364750D01*
G01X9082660Y-4047250D02*
X9263760D01*
G01X9566910Y-4364750D02*
X9409430D01*
Y-4047250D01*
X9566910D01*
G01X9503920Y-4200700D02*
X9409430D01*
G01X9716520Y-4364750D02*
Y-4047250D01*
X9795250D01*
X9826750Y-4063130D01*
X9850370Y-4084290D01*
X9870060Y-4116040D01*
X9885810Y-4153090D01*
X9889740Y-4206000D01*
X9885810Y-4258920D01*
X9870060Y-4295960D01*
X9850370Y-4327720D01*
X9826750Y-4348880D01*
X9795250Y-4364750D01*
X9716520D01*
G01X8149590Y-3094750D02*
Y-2777250D01*
X8244080D01*
X8275570Y-2793130D01*
X8299200Y-2830170D01*
X8307070Y-2872500D01*
X8299200Y-2914830D01*
X8279510Y-2946590D01*
X8244080Y-2962470D01*
X8149590D01*
G01X8464550Y-2777250D02*
Y-3094750D01*
X8622030D01*
G01X8759820D02*
X8858250Y-2777250D01*
X8956680Y-3094750D01*
G01X8921240Y-2983630D02*
X8795250D01*
G01X9173210Y-2777250D02*
Y-3094750D01*
G01X9082660Y-2777250D02*
X9263760D01*
G01X9566910Y-3094750D02*
X9409430D01*
Y-2777250D01*
X9566910D01*
G01X9503920Y-2930700D02*
X9409430D01*
G01X9716520Y-3094750D02*
Y-2777250D01*
X9795250D01*
X9826750Y-2793130D01*
X9850370Y-2814290D01*
X9870060Y-2846040D01*
X9885810Y-2883090D01*
X9889740Y-2936000D01*
X9885810Y-2988920D01*
X9870060Y-3025960D01*
X9850370Y-3057720D01*
X9826750Y-3078880D01*
X9795250Y-3094750D01*
X9716520D01*
G01X8149590Y-3729750D02*
Y-3412250D01*
X8244080D01*
X8275570Y-3428130D01*
X8299200Y-3465170D01*
X8307070Y-3507500D01*
X8299200Y-3549830D01*
X8279510Y-3581590D01*
X8244080Y-3597470D01*
X8149590D01*
G01X8464550Y-3412250D02*
Y-3729750D01*
X8622030D01*
G01X8759820D02*
X8858250Y-3412250D01*
X8956680Y-3729750D01*
G01X8921240Y-3618630D02*
X8795250D01*
G01X9173210Y-3412250D02*
Y-3729750D01*
G01X9082660Y-3412250D02*
X9263760D01*
G01X9566910Y-3729750D02*
X9409430D01*
Y-3412250D01*
X9566910D01*
G01X9503920Y-3565700D02*
X9409430D01*
G01X9716520Y-3729750D02*
Y-3412250D01*
X9795250D01*
X9826750Y-3428130D01*
X9850370Y-3449290D01*
X9870060Y-3481040D01*
X9885810Y-3518090D01*
X9889740Y-3571000D01*
X9885810Y-3623920D01*
X9870060Y-3660960D01*
X9850370Y-3692720D01*
X9826750Y-3713880D01*
X9795250Y-3729750D01*
X9716520D01*
G01X8149590Y-2459750D02*
Y-2142250D01*
X8244080D01*
X8275570Y-2158130D01*
X8299200Y-2195170D01*
X8307070Y-2237500D01*
X8299200Y-2279830D01*
X8279510Y-2311590D01*
X8244080Y-2327470D01*
X8149590D01*
G01X8464550Y-2142250D02*
Y-2459750D01*
X8622030D01*
G01X8759820D02*
X8858250Y-2142250D01*
X8956680Y-2459750D01*
G01X8921240Y-2348630D02*
X8795250D01*
G01X9173210Y-2142250D02*
Y-2459750D01*
G01X9082660Y-2142250D02*
X9263760D01*
G01X9566910Y-2459750D02*
X9409430D01*
Y-2142250D01*
X9566910D01*
G01X9503920Y-2295700D02*
X9409430D01*
G01X9716520Y-2459750D02*
Y-2142250D01*
X9795250D01*
X9826750Y-2158130D01*
X9850370Y-2179290D01*
X9870060Y-2211040D01*
X9885810Y-2248090D01*
X9889740Y-2301000D01*
X9885810Y-2353920D01*
X9870060Y-2390960D01*
X9850370Y-2422720D01*
X9826750Y-2443880D01*
X9795250Y-2459750D01*
X9716520D01*
G01X8149590Y-1824750D02*
Y-1507250D01*
X8244080D01*
X8275570Y-1523130D01*
X8299200Y-1560170D01*
X8307070Y-1602500D01*
X8299200Y-1644830D01*
X8279510Y-1676590D01*
X8244080Y-1692470D01*
X8149590D01*
G01X8464550Y-1507250D02*
Y-1824750D01*
X8622030D01*
G01X8759820D02*
X8858250Y-1507250D01*
X8956680Y-1824750D01*
G01X8921240Y-1713630D02*
X8795250D01*
G01X9173210Y-1507250D02*
Y-1824750D01*
G01X9082660Y-1507250D02*
X9263760D01*
G01X9566910Y-1824750D02*
X9409430D01*
Y-1507250D01*
X9566910D01*
G01X9503920Y-1660700D02*
X9409430D01*
G01X9716520Y-1824750D02*
Y-1507250D01*
X9795250D01*
X9826750Y-1523130D01*
X9850370Y-1544290D01*
X9870060Y-1576040D01*
X9885810Y-1613090D01*
X9889740Y-1666000D01*
X9885810Y-1718920D01*
X9870060Y-1755960D01*
X9850370Y-1787720D01*
X9826750Y-1808880D01*
X9795250Y-1824750D01*
X9716520D01*
G01X9083040Y4921250D02*
Y5238750D01*
X9035800Y5175250D01*
G01Y4921250D02*
X9130280D01*
G01X9398000D02*
X9425560Y4926540D01*
X9457050Y4942410D01*
X9476740Y4968860D01*
X9484610Y5005920D01*
X9476740Y5042950D01*
X9453120Y5074700D01*
X9417680Y5090590D01*
X9378320D01*
X9354690Y5101170D01*
X9335000Y5127620D01*
X9327130Y5164660D01*
X9338950Y5201710D01*
X9366500Y5228170D01*
X9398000Y5238750D01*
X9429490Y5228170D01*
X9457050Y5201710D01*
X9468870Y5164660D01*
X9460990Y5127620D01*
X9441310Y5101170D01*
X9417680Y5090590D01*
X9378320D01*
X9342880Y5074700D01*
X9319260Y5042950D01*
X9311390Y5005920D01*
X9319260Y4968860D01*
X9338950Y4942410D01*
X9370440Y4926540D01*
X9398000Y4921250D01*
G01X9712960Y5238750D02*
X9681460Y5228170D01*
X9657840Y5201710D01*
X9642090Y5169960D01*
X9630280Y5127620D01*
X9626350Y5080000D01*
X9630280Y5032370D01*
X9642090Y4990040D01*
X9657840Y4958280D01*
X9681460Y4931830D01*
X9712960Y4921250D01*
X9744450Y4931830D01*
X9768080Y4958280D01*
X9783830Y4990040D01*
X9795640Y5032370D01*
X9799570Y5080000D01*
X9795640Y5127620D01*
X9783830Y5169960D01*
X9768080Y5201710D01*
X9744450Y5228170D01*
X9712960Y5238750D01*
G01X10069190Y5080000D02*
X18000000D01*
G01X10629900Y-1348500D02*
Y-6428500D01*
G01X11299190Y-3729750D02*
Y-3412250D01*
X11251950Y-3475750D01*
G01Y-3729750D02*
X11346430D01*
G01X11527540Y-3666250D02*
X11551150Y-3703300D01*
X11582650Y-3724460D01*
X11618090Y-3729750D01*
X11649590Y-3724460D01*
X11681080Y-3698010D01*
X11700760Y-3666250D01*
X11704700Y-3634500D01*
X11696830Y-3597470D01*
X11669270Y-3571000D01*
X11641710Y-3560410D01*
X11606270D01*
G01X11641710D02*
X11665330Y-3544540D01*
X11685020Y-3518090D01*
X11692890Y-3486340D01*
X11685020Y-3454580D01*
X11665330Y-3428130D01*
X11629900Y-3412250D01*
X11594470Y-3417540D01*
X11559030Y-3438710D01*
G01X11976350Y-3729750D02*
Y-3412250D01*
X11830680Y-3639790D01*
X12027540D01*
G01X11299190Y-1824750D02*
X11267690Y-1819460D01*
X11240140Y-1798300D01*
X11216510Y-1766540D01*
X11200760Y-1729500D01*
X11192890Y-1687170D01*
Y-1644830D01*
X11200760Y-1602500D01*
X11216510Y-1565460D01*
X11240140Y-1533710D01*
X11267690Y-1512540D01*
X11299190Y-1507250D01*
X11330680Y-1512540D01*
X11358240Y-1533710D01*
X11381870Y-1565460D01*
X11397620Y-1602500D01*
X11405490Y-1644830D01*
Y-1687170D01*
X11397620Y-1729500D01*
X11381870Y-1766540D01*
X11358240Y-1798300D01*
X11330680Y-1819460D01*
X11299190Y-1824750D01*
G01X11330680Y-1740080D02*
X11377930Y-1824750D01*
G01X11614150Y-1507250D02*
Y-1824750D01*
G01X11523600Y-1507250D02*
X11704700D01*
G01X11929110Y-1824750D02*
Y-1681880D01*
X11850370Y-1507250D01*
G01X12007850D02*
X11929110Y-1681880D01*
G01X11661390Y-6269750D02*
Y-5952250D01*
X11515720Y-6179790D01*
X11712580D01*
G01X11370060Y-5571250D02*
X11393670Y-5608300D01*
X11425170Y-5629460D01*
X11460610Y-5634750D01*
X11492110Y-5629460D01*
X11523600Y-5603010D01*
X11543280Y-5571250D01*
X11547220Y-5539500D01*
X11539350Y-5502470D01*
X11511790Y-5476000D01*
X11484230Y-5465410D01*
X11448790D01*
G01X11484230D02*
X11507850Y-5449540D01*
X11527540Y-5423090D01*
X11535410Y-5391340D01*
X11527540Y-5359580D01*
X11507850Y-5333130D01*
X11472420Y-5317250D01*
X11436990Y-5322540D01*
X11401550Y-5343710D01*
G01X11696820Y-5502470D02*
X11724390Y-5465410D01*
X11748010Y-5444250D01*
X11779510Y-5433670D01*
X11807070Y-5444250D01*
X11826750Y-5465410D01*
X11842500Y-5497170D01*
X11846440Y-5534210D01*
X11842500Y-5565960D01*
X11826750Y-5597720D01*
X11803120Y-5624170D01*
X11775570Y-5634750D01*
X11744070Y-5624170D01*
X11716510Y-5592430D01*
X11700760Y-5544790D01*
X11696820Y-5491880D01*
X11704700Y-5423090D01*
X11716510Y-5386040D01*
X11736190Y-5349000D01*
X11763750Y-5322540D01*
X11791310Y-5317250D01*
X11818870Y-5327830D01*
X11838560Y-5354290D01*
G01X11606270Y-4999750D02*
X11614150Y-4930960D01*
X11625960Y-4872760D01*
X11641710Y-4819830D01*
X11661390Y-4761630D01*
X11692890Y-4682250D01*
X11535410D01*
G01X11370060Y-4301250D02*
X11393670Y-4338300D01*
X11425170Y-4359460D01*
X11460610Y-4364750D01*
X11492110Y-4359460D01*
X11523600Y-4333010D01*
X11543280Y-4301250D01*
X11547220Y-4269500D01*
X11539350Y-4232470D01*
X11511790Y-4206000D01*
X11484230Y-4195410D01*
X11448790D01*
G01X11484230D02*
X11507850Y-4179540D01*
X11527540Y-4153090D01*
X11535410Y-4121340D01*
X11527540Y-4089580D01*
X11507850Y-4063130D01*
X11472420Y-4047250D01*
X11436990Y-4052540D01*
X11401550Y-4073710D01*
G01X11685020Y-4301250D02*
X11708630Y-4338300D01*
X11740130Y-4359460D01*
X11775570Y-4364750D01*
X11807070Y-4359460D01*
X11838560Y-4333010D01*
X11858240Y-4301250D01*
X11862180Y-4269500D01*
X11854310Y-4232470D01*
X11826750Y-4206000D01*
X11799190Y-4195410D01*
X11763750D01*
G01X11799190D02*
X11822810Y-4179540D01*
X11842500Y-4153090D01*
X11850370Y-4121340D01*
X11842500Y-4089580D01*
X11822810Y-4063130D01*
X11787380Y-4047250D01*
X11751950Y-4052540D01*
X11716510Y-4073710D01*
G01X11527540Y-3031250D02*
X11551150Y-3068300D01*
X11582650Y-3089460D01*
X11618090Y-3094750D01*
X11649590Y-3089460D01*
X11681080Y-3063010D01*
X11700760Y-3031250D01*
X11704700Y-2999500D01*
X11696830Y-2962470D01*
X11669270Y-2936000D01*
X11641710Y-2925410D01*
X11606270D01*
G01X11641710D02*
X11665330Y-2909540D01*
X11685020Y-2883090D01*
X11692890Y-2851340D01*
X11685020Y-2819580D01*
X11665330Y-2793130D01*
X11629900Y-2777250D01*
X11594470Y-2782540D01*
X11559030Y-2803710D01*
G01X11606270Y-2459750D02*
X11614150Y-2390960D01*
X11625960Y-2332760D01*
X11641710Y-2279830D01*
X11661390Y-2221630D01*
X11692890Y-2142250D01*
X11535410D01*
G01X15100000Y4509500D02*
X15500000Y4572000D01*
X15100000Y4634500D01*
Y4509500D01*
G01X15500000Y4250000D02*
Y4822000D01*
G01X18000000Y250000D02*
Y5330000D01*
G01X17600000Y5017500D02*
X18000000Y5080000D01*
X17600000Y5142500D01*
Y5017500D01*
M02*
