G04 ================== begin FILE IDENTIFICATION RECORD ==================*
G04 Layout Name:  C:/Users/6gioc/OneDrive/AAST/CIRCUIT/SCHM_N/allegro/AAST_BOARD V1.brd*
G04 Film Name:    SMB*
G04 File Format:  Gerber RS274X*
G04 File Origin:  Cadence Allegro 17.2-S038*
G04 Origin Date:  Thu Nov 30 16:01:58 2023*
G04 *
G04 Layer:  VIA CLASS/SOLDERMASK_BOTTOM*
G04 Layer:  PIN/SOLDERMASK_BOTTOM*
G04 Layer:  BOARD GEOMETRY/OUTLINE*
G04 *
G04 Offset:    (0.0000 0.0000)*
G04 Mirror:    No*
G04 Mode:      Positive*
G04 Rotation:  0*
G04 FullContactRelief:  No*
G04 UndefLineWidth:     0.2000*
G04 ================== end FILE IDENTIFICATION RECORD ====================*
%FSLAX25Y25*MOMM*%
%IR0*IPPOS*OFA0.00000B0.00000*MIA0B0*SFA1.00000B1.00000*%
%ADD18O,1.524X1.016*%
%ADD17R,1.524X1.016*%
%ADD14C,1.5001*%
%ADD11C,2.032*%
%ADD15R,1.5001X1.5001*%
%ADD12C,1.905*%
%ADD16C,1.1176*%
%ADD10C,3.683*%
%ADD13R,1.905X1.905*%
%ADD19C,.2*%
G75*
%LPD*%
G75*
G54D10*
X500000Y500000D03*
X2200000Y3500000D03*
X15800000D03*
X17500000Y500000D03*
G54D11*
X635000Y1016000D03*
Y2794000D03*
X1397000Y508000D03*
X1651000Y1016000D03*
Y2794000D03*
X2413000Y508000D03*
X3937000D03*
X4953000D03*
X4699000Y1778000D03*
Y2794000D03*
X5715000Y3683000D03*
X6858000Y635000D03*
Y254000D03*
X6731000Y3683000D03*
X8128000Y635000D03*
X7874000D03*
Y254000D03*
X8128000D03*
X9144000Y635000D03*
Y254000D03*
X8890000Y3683000D03*
X9652000Y254000D03*
Y635000D03*
X9906000Y3683000D03*
X10668000Y254000D03*
Y635000D03*
X10414000Y3683000D03*
X11430000D03*
X13589000Y635000D03*
Y254000D03*
X13208000Y3683000D03*
X14224000D03*
X14605000Y635000D03*
Y254000D03*
X15113000D03*
X16129000D03*
G54D12*
X635000Y1524000D03*
X889000D03*
X2032000Y1016000D03*
Y1270000D03*
Y1524000D03*
Y1778000D03*
Y2032000D03*
Y2286000D03*
Y2540000D03*
X2794000Y1524000D03*
Y1270000D03*
Y1016000D03*
Y2286000D03*
Y2032000D03*
Y1778000D03*
Y2794000D03*
Y2540000D03*
X3556000Y1016000D03*
Y1270000D03*
Y1524000D03*
Y1778000D03*
Y2032000D03*
Y2286000D03*
Y2540000D03*
X4318000Y1524000D03*
Y1270000D03*
Y1016000D03*
Y2286000D03*
Y2032000D03*
Y1778000D03*
Y2794000D03*
Y2540000D03*
X5334000Y1016000D03*
X5080000Y3302000D03*
X5334000D03*
X6096000Y1016000D03*
X5842000D03*
X5588000D03*
Y3302000D03*
X5842000D03*
X6096000D03*
X6858000Y1016000D03*
X6604000D03*
X6350000D03*
Y3302000D03*
X6604000D03*
X6858000D03*
X7620000Y1016000D03*
X7366000D03*
X7112000D03*
Y3302000D03*
X7366000D03*
X7620000D03*
X8382000Y1016000D03*
X8128000D03*
X7874000D03*
Y3302000D03*
X8128000D03*
X8382000D03*
X8890000Y1016000D03*
X8636000D03*
X9144000D03*
X8636000Y3302000D03*
X8890000D03*
X9144000D03*
X9906000Y1016000D03*
X9652000D03*
X9398000D03*
Y3302000D03*
X9652000D03*
X9906000D03*
X10668000Y1016000D03*
X10414000D03*
X10160000D03*
Y3302000D03*
X10414000D03*
X10668000D03*
X11430000Y1016000D03*
X11176000D03*
X10922000D03*
Y3302000D03*
X11176000D03*
X11430000D03*
X12192000Y1016000D03*
X11938000D03*
X11684000D03*
X12065000Y3683000D03*
X11684000Y3302000D03*
X11938000D03*
X12192000D03*
X12954000Y1016000D03*
X12700000D03*
X12446000D03*
X12319000Y3683000D03*
X12954000D03*
X12700000D03*
X12446000Y3302000D03*
X12700000D03*
X12954000D03*
X13716000Y1143000D03*
Y1397000D03*
Y1651000D03*
Y1905000D03*
Y2159000D03*
Y2413000D03*
Y2667000D03*
X14478000Y1397000D03*
Y1143000D03*
Y2159000D03*
Y1905000D03*
Y1651000D03*
Y2921000D03*
Y2667000D03*
Y2413000D03*
X15240000Y1143000D03*
Y1397000D03*
Y1651000D03*
Y1905000D03*
Y2159000D03*
Y2413000D03*
Y2667000D03*
X16002000Y1397000D03*
Y1143000D03*
Y2159000D03*
Y1905000D03*
Y1651000D03*
Y2921000D03*
Y2667000D03*
Y2413000D03*
G54D13*
X2032000Y2794000D03*
X3556000D03*
X5080000Y1016000D03*
X13716000Y2921000D03*
X15240000D03*
G54D14*
X2921000Y3683000D03*
X3302000Y508000D03*
X3175000Y3683000D03*
X3429000D03*
Y3429000D03*
X3175000D03*
X5461000Y508000D03*
X5715000D03*
X5969000D03*
Y254000D03*
X5715000D03*
X6223000Y508000D03*
X6477000D03*
Y254000D03*
X6223000D03*
X11557000Y508000D03*
X11811000D03*
X12065000D03*
Y254000D03*
X11811000D03*
X12319000Y508000D03*
X12573000D03*
Y254000D03*
X12319000D03*
X14605000Y3683000D03*
X14859000D03*
X15113000D03*
Y3429000D03*
X14859000D03*
X17399000Y1143000D03*
X17018000Y2159000D03*
X17653000Y1397000D03*
Y1143000D03*
G54D15*
X2921000Y3429000D03*
X3048000Y508000D03*
X5461000Y254000D03*
X11557000D03*
X14605000Y3429000D03*
X17399000Y1397000D03*
X16764000Y2159000D03*
G54D16*
X4762500Y1016000D03*
X5778500Y1270000D03*
X8128000Y3111500D03*
X10985500Y2667000D03*
Y3048000D03*
X11874500Y2730500D03*
X12255500Y2794000D03*
G54D17*
X4572000Y3556000D03*
G54D18*
Y3683000D03*
Y3810000D03*
G54D19*
G01X0Y1500000D02*
Y0D01*
X18000000D01*
Y1500000D01*
G03X15500000Y4000000I-2500000J0D01*
G01X2500000D01*
G03X0Y1500000I0J-2500000D01*
M02*
