G04 ================== begin FILE IDENTIFICATION RECORD ==================*
G04 Layout Name:  C:/Users/6gioc/OneDrive/AAST/CIRCUIT/SCHM_N/allegro/AAST_BOARD V1.brd*
G04 Film Name:    SST*
G04 File Format:  Gerber RS274X*
G04 File Origin:  Cadence Allegro 17.2-S038*
G04 Origin Date:  Thu Nov 30 16:01:58 2023*
G04 *
G04 Layer:  REF DES/SILKSCREEN_TOP*
G04 Layer:  PACKAGE GEOMETRY/SILKSCREEN_TOP*
G04 Layer:  BOARD GEOMETRY/OUTLINE*
G04 Layer:  BOARD GEOMETRY/DIMENSION*
G04 Layer:  BOARD GEOMETRY/SILKSCREEN_TOP*
G04 *
G04 Offset:    (0.0000 0.0000)*
G04 Mirror:    No*
G04 Mode:      Positive*
G04 Rotation:  0*
G04 FullContactRelief:  No*
G04 UndefLineWidth:     0.2000*
G04 ================== end FILE IDENTIFICATION RECORD ====================*
%FSLAX25Y25*MOMM*%
%IR0*IPPOS*OFA0.00000B0.00000*MIA0B0*SFA1.00000B1.00000*%
%ADD10C,.2032*%
%ADD11C,.2*%
G75*
%LPD*%
G75*
G54D10*
G01X4325870Y3784850D02*
X4305550Y3683000D01*
G01D02*
X4325870Y3581150D01*
G01D02*
X4383530Y3494530D01*
G01D02*
X4470150Y3436870D01*
G01D02*
X4572000Y3416550D01*
G01Y3949450D02*
X4470150Y3929130D01*
G01D02*
X4383530Y3871470D01*
G01D02*
X4325870Y3784850D01*
G01X4760470Y3494530D02*
Y3871470D01*
G01X4572000Y3416550D02*
X4673850Y3436870D01*
G01D02*
X4760470Y3494530D01*
G01D02*
X4762500Y3496560D01*
G01X4760470Y3871470D02*
X4673850Y3929130D01*
G01D02*
X4572000Y3949450D01*
G54D11*
G01X-538480Y730250D02*
Y1047750D01*
X-585720Y984250D01*
G01Y730250D02*
X-491240D01*
G01X-310130Y777860D02*
X-286520Y751410D01*
X-258960Y735540D01*
X-223520Y730250D01*
X-188080Y740830D01*
X-160530Y761990D01*
X-140840Y799040D01*
X-136910Y841370D01*
X-144780Y883700D01*
X-164470Y910170D01*
X-192030Y931330D01*
X-219580Y936620D01*
X-247140Y931330D01*
X-282570Y910170D01*
X-270760Y1047750D01*
X-164470D01*
G01X-250000Y0D02*
X-631000D01*
G01X-381000Y492130D02*
Y0D01*
G01X-443500Y400000D02*
X-381000Y0D01*
X-318500Y400000D01*
X-443500D01*
G01X-381000Y1285870D02*
Y1500000D01*
G01X-318500Y1100000D02*
X-381000Y1500000D01*
X-443500Y1100000D01*
X-318500D01*
G01X-250000Y1500000D02*
X-631000D01*
G01X0D02*
Y0D01*
X18000000D01*
Y1500000D01*
G03X15500000Y4000000I-2500000J0D01*
G01X2500000D01*
G03X0Y1500000I0J-2500000D01*
G01Y250000D02*
Y5330000D01*
G01X661840Y1270000D02*
Y1397000D01*
X694010D01*
X706880Y1390650D01*
X716530Y1382180D01*
X724580Y1369490D01*
X731010Y1354660D01*
X732620Y1333500D01*
X731010Y1312330D01*
X724580Y1297510D01*
X716530Y1284810D01*
X706880Y1276350D01*
X694010Y1270000D01*
X661840D01*
G01X791380Y1295400D02*
X801030Y1280580D01*
X813900Y1272120D01*
X828380Y1270000D01*
X841250Y1272120D01*
X854120Y1282700D01*
X862160Y1295400D01*
X863770Y1308100D01*
X860550Y1322910D01*
X849290Y1333500D01*
X838030Y1337730D01*
X823550D01*
G01X838030D02*
X847680Y1344080D01*
X855730Y1354660D01*
X858940Y1367370D01*
X855730Y1380070D01*
X847680Y1390650D01*
X833200Y1397000D01*
X818730Y1394880D01*
X804250Y1386420D01*
G01X1016000Y1524000D02*
G03I-254000J0D01*
G01X638390Y1651000D02*
X655320Y1714500D01*
X672250Y1651000D01*
G01X666160Y1673220D02*
X644480D01*
G01X579520Y3578140D02*
X647790Y3179080D01*
X704500Y3579940D01*
X579520Y3578140D01*
G01X647790Y3179080D02*
X640740Y3667130D01*
G01X241300Y3905250D02*
Y4222750D01*
X339720D01*
X371220Y4206870D01*
X390910Y4185710D01*
X398780Y4143370D01*
X390910Y4101040D01*
X367280Y4074590D01*
X339720Y4058700D01*
X241300D01*
G01X339720D02*
X398780Y3905250D01*
G01X560190Y4169830D02*
X583820Y4201580D01*
X611380Y4217460D01*
X642880Y4222750D01*
X682240Y4212170D01*
X709810Y4185710D01*
X717680Y4153960D01*
X713740Y4122200D01*
X697990Y4095750D01*
X619250Y4042830D01*
X583820Y4005790D01*
X560190Y3952860D01*
X552320Y3905250D01*
X717680D01*
G01X863350Y3952860D02*
X886960Y3926410D01*
X914520Y3910540D01*
X949960Y3905250D01*
X985400Y3915830D01*
X1012950Y3936990D01*
X1032640Y3974040D01*
X1036570Y4016370D01*
X1028700Y4058700D01*
X1009010Y4085170D01*
X981450Y4106330D01*
X953900Y4111620D01*
X926340Y4106330D01*
X890910Y4085170D01*
X902720Y4222750D01*
X1009010D01*
G01X8726810Y5080000D02*
X0D01*
G01X400000Y5142500D02*
X0Y5080000D01*
X400000Y5017500D01*
Y5142500D01*
G01X1044790Y1016000D02*
Y1094740D01*
X1069130D01*
X1076920Y1090800D01*
X1081790Y1085550D01*
X1083730Y1075050D01*
X1081790Y1064560D01*
X1075940Y1058000D01*
X1069130Y1054060D01*
X1044790D01*
G01X1069130D02*
X1083730Y1016000D01*
G01X1143000D02*
Y1094740D01*
X1131320Y1078990D01*
G01Y1016000D02*
X1154680D01*
G01X1221740D02*
X1228560Y1017310D01*
X1236340Y1021250D01*
X1241210Y1027810D01*
X1243160Y1037000D01*
X1241210Y1046180D01*
X1235370Y1054060D01*
X1226610Y1058000D01*
X1216870D01*
X1211030Y1060620D01*
X1206160Y1067180D01*
X1204210Y1076370D01*
X1207140Y1085550D01*
X1213950Y1092120D01*
X1221740Y1094740D01*
X1229530Y1092120D01*
X1236340Y1085550D01*
X1239270Y1076370D01*
X1237320Y1067180D01*
X1232450Y1060620D01*
X1226610Y1058000D01*
X1216870D01*
X1208110Y1054060D01*
X1202270Y1046180D01*
X1200320Y1037000D01*
X1202270Y1027810D01*
X1207140Y1021250D01*
X1214920Y1017310D01*
X1221740Y1016000D01*
G01X1498600Y889000D02*
X787400D01*
Y1143000D01*
X1498600D01*
Y889000D01*
G01X894420Y1651000D02*
Y1714500D01*
G01X920160D02*
X894420Y1675340D01*
G01X924220Y1651000D02*
X905930Y1693330D01*
G01X1084160Y2794000D02*
Y2872740D01*
X1108500D01*
X1116290Y2868800D01*
X1121160Y2863550D01*
X1123100Y2853050D01*
X1121160Y2842560D01*
X1115310Y2836000D01*
X1108500Y2832060D01*
X1084160D01*
G01X1108500D02*
X1123100Y2794000D01*
G01X1163870Y2859620D02*
X1169710Y2867490D01*
X1176530Y2871430D01*
X1184320Y2872740D01*
X1194050Y2870120D01*
X1200870Y2863550D01*
X1202820Y2855680D01*
X1201840Y2847800D01*
X1197950Y2841240D01*
X1178480Y2828120D01*
X1169710Y2818930D01*
X1163870Y2805810D01*
X1161920Y2794000D01*
X1202820D01*
G01X1498600Y2667000D02*
X787400D01*
Y2921000D01*
X1498600D01*
Y2667000D01*
G01X1846160Y508000D02*
Y586740D01*
X1870500D01*
X1878290Y582800D01*
X1883160Y577550D01*
X1885100Y567050D01*
X1883160Y556560D01*
X1877310Y550000D01*
X1870500Y546060D01*
X1846160D01*
G01X1870500D02*
X1885100Y508000D01*
G01X1944370D02*
Y586740D01*
X1932690Y570990D01*
G01Y508000D02*
X1956050D01*
G01X2260600Y381000D02*
X1549400D01*
Y635000D01*
X2260600D01*
Y381000D01*
G01X2133600Y3022600D02*
X2286000D01*
X2349500Y2952750D01*
X2476500D01*
X2540000Y3022600D01*
X2692400D01*
Y800100D01*
X2133600D01*
Y3022600D01*
G01X2683080Y533400D02*
X2691130Y520700D01*
X2700770Y512230D01*
X2712030Y508000D01*
X2724900Y512230D01*
X2734550Y520700D01*
X2744200Y533400D01*
X2747420Y550330D01*
Y635000D01*
G01X2841530Y508000D02*
X2844750Y535510D01*
X2849580Y558800D01*
X2856010Y579970D01*
X2864050Y603250D01*
X2876920Y635000D01*
X2812580D01*
G01X2925000Y383000D02*
X3425000D01*
Y633000D01*
X2988500D01*
X2925000Y569500D01*
Y383000D01*
G01X2947430Y808570D02*
X2944380Y811110D01*
X2940830Y812800D01*
X2936760D01*
X2932180Y810260D01*
X2928630Y806030D01*
X2926080Y800950D01*
X2924050Y792480D01*
X2923540Y784860D01*
X2924560Y777240D01*
X2926080Y772160D01*
X2929130Y767080D01*
X2932690Y763690D01*
X2936250Y762000D01*
X2939810D01*
X2943370Y763690D01*
X2946420Y766230D01*
X2948960Y769620D01*
G01X2969250Y762000D02*
X2965180Y762850D01*
X2961630Y766230D01*
X2958570Y771310D01*
X2956540Y777240D01*
X2955520Y784010D01*
Y790790D01*
X2956540Y797560D01*
X2958570Y803490D01*
X2961630Y808570D01*
X2965180Y811950D01*
X2969250Y812800D01*
X2973320Y811950D01*
X2976870Y808570D01*
X2979930Y803490D01*
X2981960Y797560D01*
X2982980Y790790D01*
Y784010D01*
X2981960Y777240D01*
X2979930Y771310D01*
X2976870Y766230D01*
X2973320Y762850D01*
X2969250Y762000D01*
G01X2992080Y812800D02*
Y762000D01*
X3012420D01*
G01X3058080Y812800D02*
Y762000D01*
X3078420D01*
G01X3101250Y812800D02*
Y762000D01*
G01X3094130Y795870D02*
X3108370D01*
G01X3143400Y812800D02*
Y762000D01*
G01Y769620D02*
X3141370Y765390D01*
X3138320Y762850D01*
X3134760Y762000D01*
X3130690Y763690D01*
X3127640Y767930D01*
X3125610Y773010D01*
X3125100Y778930D01*
X3125610Y784860D01*
X3127640Y789940D01*
X3130690Y794170D01*
X3134760Y795870D01*
X3138320Y795020D01*
X3140860Y793330D01*
X3143400Y789940D01*
G01X3167250Y760310D02*
X3166230Y761150D01*
Y762850D01*
X3167250Y763690D01*
X3168270Y762850D01*
Y761150D01*
X3167250Y760310D01*
G01X2312840Y2032000D02*
Y1940980D01*
X2319270Y1921930D01*
X2332140Y1909230D01*
X2348230Y1905000D01*
X2364320Y1909230D01*
X2377190Y1921930D01*
X2383620Y1940980D01*
Y2032000D01*
G01X2477770Y1905000D02*
Y2032000D01*
X2458470Y2006600D01*
G01Y1905000D02*
X2497070D01*
G01X2620430Y3328430D02*
X2617890Y3325380D01*
X2616200Y3321830D01*
Y3317760D01*
X2618740Y3313180D01*
X2622970Y3309630D01*
X2628050Y3307080D01*
X2636520Y3305050D01*
X2644140Y3304540D01*
X2651760Y3305560D01*
X2656840Y3307080D01*
X2661920Y3310130D01*
X2665310Y3313690D01*
X2667000Y3317250D01*
Y3320810D01*
X2665310Y3324370D01*
X2662770Y3327420D01*
X2659380Y3329960D01*
G01X2667000Y3350250D02*
X2666150Y3346180D01*
X2662770Y3342630D01*
X2657690Y3339570D01*
X2651760Y3337540D01*
X2644990Y3336520D01*
X2638210D01*
X2631440Y3337540D01*
X2625510Y3339570D01*
X2620430Y3342630D01*
X2617050Y3346180D01*
X2616200Y3350250D01*
X2617050Y3354320D01*
X2620430Y3357870D01*
X2625510Y3360930D01*
X2631440Y3362960D01*
X2638210Y3363980D01*
X2644990D01*
X2651760Y3362960D01*
X2657690Y3360930D01*
X2662770Y3357870D01*
X2666150Y3354320D01*
X2667000Y3350250D01*
G01X2616200Y3373080D02*
X2667000D01*
Y3393420D01*
G01X2616200Y3439080D02*
X2667000D01*
Y3459420D01*
G01X2616200Y3482250D02*
X2667000D01*
G01X2633130Y3475130D02*
Y3489370D01*
G01X2616200Y3524400D02*
X2667000D01*
G01X2659380D02*
X2663610Y3522370D01*
X2666150Y3519320D01*
X2667000Y3515760D01*
X2665310Y3511690D01*
X2661070Y3508640D01*
X2655990Y3506610D01*
X2650070Y3506100D01*
X2644140Y3506610D01*
X2639060Y3508640D01*
X2634830Y3511690D01*
X2633130Y3515760D01*
X2633980Y3519320D01*
X2635670Y3521860D01*
X2639060Y3524400D01*
G01X2668690Y3548250D02*
X2667850Y3547230D01*
X2666150D01*
X2665310Y3548250D01*
X2666150Y3549270D01*
X2667850D01*
X2668690Y3548250D01*
G01X2556080Y3708400D02*
X2564130Y3695700D01*
X2573770Y3687230D01*
X2585030Y3683000D01*
X2597900Y3687230D01*
X2607550Y3695700D01*
X2617200Y3708400D01*
X2620420Y3725330D01*
Y3810000D01*
G01X2717750Y3683000D02*
Y3810000D01*
X2698450Y3784600D01*
G01Y3683000D02*
X2737050D01*
G01X3550000Y3306000D02*
Y3806000D01*
X2800000D01*
Y3369500D01*
X2863500Y3306000D01*
X3550000D01*
G01X2500000Y4250000D02*
Y4822000D01*
G01X5170810Y4572000D02*
X2500000D01*
G01X2900000Y4634500D02*
X2500000Y4572000D01*
X2900000Y4509500D01*
Y4634500D01*
G01X3657600Y3022600D02*
X3810000D01*
X3873500Y2952750D01*
X4000500D01*
X4064000Y3022600D01*
X4216400D01*
Y800100D01*
X3657600D01*
Y3022600D01*
G01X4386160Y508000D02*
Y586740D01*
X4410500D01*
X4418290Y582800D01*
X4423160Y577550D01*
X4425100Y567050D01*
X4423160Y556560D01*
X4417310Y550000D01*
X4410500Y546060D01*
X4386160D01*
G01X4410500D02*
X4425100Y508000D01*
G01X4465870Y540810D02*
X4472690Y550000D01*
X4478530Y555240D01*
X4486320Y557870D01*
X4493130Y555240D01*
X4498000Y550000D01*
X4501900Y542120D01*
X4502870Y532930D01*
X4501900Y525060D01*
X4498000Y517180D01*
X4492160Y510620D01*
X4485340Y508000D01*
X4477550Y510620D01*
X4470740Y518500D01*
X4466840Y530310D01*
X4465870Y543430D01*
X4467820Y560490D01*
X4470740Y569680D01*
X4475610Y578870D01*
X4482420Y585430D01*
X4489240Y586740D01*
X4496050Y584120D01*
X4500920Y577550D01*
G01X4800600Y381000D02*
X4089400D01*
Y635000D01*
X4800600D01*
Y381000D01*
G01X3836840Y2032000D02*
Y1940980D01*
X3843270Y1921930D01*
X3856140Y1909230D01*
X3872230Y1905000D01*
X3888320Y1909230D01*
X3901190Y1921930D01*
X3907620Y1940980D01*
Y2032000D01*
G01X3971200Y2010830D02*
X3980860Y2023530D01*
X3992120Y2029880D01*
X4004990Y2032000D01*
X4021070Y2027770D01*
X4032340Y2017180D01*
X4035550Y2004490D01*
X4033940Y1991780D01*
X4027510Y1981200D01*
X3995340Y1960030D01*
X3980860Y1945220D01*
X3971200Y1924050D01*
X3967990Y1905000D01*
X4035550D01*
G01X3955970Y3746500D02*
Y3609980D01*
X3965450Y3581390D01*
X3984410Y3562350D01*
X4008120Y3556000D01*
X4031830Y3562350D01*
X4050790Y3581390D01*
X4060270Y3609980D01*
Y3746500D01*
G01X4153580Y3635370D02*
X4170170Y3657600D01*
X4184400Y3670300D01*
X4203360Y3676650D01*
X4219960Y3670300D01*
X4231810Y3657600D01*
X4241290Y3638550D01*
X4243660Y3616320D01*
X4241290Y3597270D01*
X4231810Y3578220D01*
X4217580Y3562350D01*
X4200990Y3556000D01*
X4182030Y3562350D01*
X4165430Y3581390D01*
X4155950Y3609980D01*
X4153580Y3641720D01*
X4158320Y3683000D01*
X4165430Y3705230D01*
X4177280Y3727450D01*
X4193880Y3743330D01*
X4210470Y3746500D01*
X4227070Y3740150D01*
X4238920Y3724270D01*
G01X5096090Y279400D02*
X5104130Y266700D01*
X5113780Y258230D01*
X5125040Y254000D01*
X5137910Y258230D01*
X5147560Y266700D01*
X5157220Y279400D01*
X5160430Y296330D01*
Y381000D01*
G01X5277100Y254000D02*
Y381000D01*
X5217580Y289980D01*
X5298020D01*
G01X13093700Y1125220D02*
X4940300D01*
Y3192780D01*
X13093700D01*
Y1125220D01*
G01X4826000Y2641600D02*
Y1930400D01*
X4572000D01*
Y2641600D01*
X4826000D01*
G01X5218850Y2921000D02*
X5278120Y3111500D01*
X5337390Y2921000D01*
G01X5316050Y2987670D02*
X5240190D01*
G01X5409350Y2921000D02*
X5468620Y3111500D01*
X5527890Y2921000D01*
G01X5506550Y2987670D02*
X5430690D01*
G01X5609340Y2946390D02*
X5628300Y2930520D01*
X5649640Y2921000D01*
X5668600D01*
X5687570Y2930520D01*
X5701790Y2946390D01*
X5708900Y2968630D01*
X5704160Y2990850D01*
X5692310Y3009900D01*
X5670970Y3022600D01*
X5642530Y3028950D01*
X5625930Y3041650D01*
X5618820Y3063870D01*
X5623560Y3086100D01*
X5635410Y3101970D01*
X5652010Y3111500D01*
X5668600D01*
X5685200Y3105150D01*
X5699420Y3089270D01*
G01X5849620Y3111500D02*
Y2921000D01*
G01X5795100Y3111500D02*
X5904140D01*
G01X6183210D02*
Y2921000D01*
X6278030D01*
G01X6421120D02*
X6402150Y2924170D01*
X6385560Y2936870D01*
X6371340Y2955920D01*
X6361850Y2978150D01*
X6357110Y3003550D01*
Y3028950D01*
X6361850Y3054350D01*
X6371340Y3076580D01*
X6385560Y3095620D01*
X6402150Y3108330D01*
X6421120Y3111500D01*
X6440080Y3108330D01*
X6456680Y3095620D01*
X6470900Y3076580D01*
X6480390Y3054350D01*
X6485130Y3028950D01*
Y3003550D01*
X6480390Y2978150D01*
X6470900Y2955920D01*
X6456680Y2936870D01*
X6440080Y2924170D01*
X6421120Y2921000D01*
G01X6625840Y3016250D02*
X6673260D01*
Y2959100D01*
X6659030Y2940050D01*
X6642440Y2927350D01*
X6618730Y2921000D01*
X6595030Y2927350D01*
X6578430Y2940050D01*
X6564210Y2959100D01*
X6554720Y2981320D01*
X6549980Y3006720D01*
Y3028950D01*
X6554720Y3048000D01*
X6564210Y3070230D01*
X6578430Y3089270D01*
X6592650Y3101970D01*
X6611620Y3111500D01*
X6628210D01*
X6647180Y3105150D01*
X6661400Y3092450D01*
G01X6773670Y3111500D02*
X6830560D01*
G01X6802120D02*
Y2921000D01*
G01X6773670D02*
X6830560D01*
G01X7044770Y3095620D02*
X7030550Y3105150D01*
X7013960Y3111500D01*
X6994990D01*
X6973650Y3101970D01*
X6957060Y3086100D01*
X6945210Y3067050D01*
X6935720Y3035300D01*
X6933350Y3006720D01*
X6938100Y2978150D01*
X6945210Y2959100D01*
X6959430Y2940050D01*
X6976030Y2927350D01*
X6992620Y2921000D01*
X7009210D01*
X7025810Y2927350D01*
X7040030Y2936870D01*
X7051890Y2949570D01*
G01X7183120Y2914650D02*
X7178380Y2917830D01*
Y2924170D01*
X7183120Y2927350D01*
X7187860Y2924170D01*
Y2917830D01*
X7183120Y2914650D01*
G01X7521450Y3048000D02*
X7564120Y2921000D01*
X7606790Y3048000D01*
G01X7754620Y2921000D02*
Y3111500D01*
X7726170Y3073400D01*
G01Y2921000D02*
X7783060D01*
G01X8090580Y3079750D02*
X8104800Y3098800D01*
X8121400Y3108330D01*
X8140360Y3111500D01*
X8164070Y3105150D01*
X8180660Y3089270D01*
X8185400Y3070230D01*
X8183030Y3051170D01*
X8173550Y3035300D01*
X8126140Y3003550D01*
X8104800Y2981320D01*
X8090580Y2949570D01*
X8085840Y2921000D01*
X8185400D01*
G01X8326120D02*
X8342710Y2924170D01*
X8361680Y2933700D01*
X8373530Y2949570D01*
X8378270Y2971800D01*
X8373530Y2994020D01*
X8359310Y3013070D01*
X8337970Y3022600D01*
X8314270D01*
X8300040Y3028950D01*
X8288190Y3044820D01*
X8283450Y3067050D01*
X8290560Y3089270D01*
X8307150Y3105150D01*
X8326120Y3111500D01*
X8345080Y3105150D01*
X8361680Y3089270D01*
X8368790Y3067050D01*
X8364050Y3044820D01*
X8352200Y3028950D01*
X8337970Y3022600D01*
X8314270D01*
X8292930Y3013070D01*
X8278710Y2994020D01*
X8273970Y2971800D01*
X8278710Y2949570D01*
X8290560Y2933700D01*
X8309530Y2924170D01*
X8326120Y2921000D01*
G01X8473950Y2914650D02*
X8559290Y3111500D01*
G01X8652600Y2921000D02*
Y3111500D01*
X8761640Y2921000D01*
Y3111500D01*
G01X8897620Y2921000D02*
X8878650Y2924170D01*
X8862060Y2936870D01*
X8847840Y2955920D01*
X8838350Y2978150D01*
X8833610Y3003550D01*
Y3028950D01*
X8838350Y3054350D01*
X8847840Y3076580D01*
X8862060Y3095620D01*
X8878650Y3108330D01*
X8897620Y3111500D01*
X8916580Y3108330D01*
X8933180Y3095620D01*
X8947400Y3076580D01*
X8956890Y3054350D01*
X8961630Y3028950D01*
Y3003550D01*
X8956890Y2978150D01*
X8947400Y2955920D01*
X8933180Y2936870D01*
X8916580Y2924170D01*
X8897620Y2921000D01*
G01X9028850Y3111500D02*
X9088120Y2921000D01*
X9147390Y3111500D01*
G01X9235950Y2914650D02*
X9321290Y3111500D01*
G01X9424080Y3079750D02*
X9438300Y3098800D01*
X9454900Y3108330D01*
X9473860Y3111500D01*
X9497570Y3105150D01*
X9514160Y3089270D01*
X9518900Y3070230D01*
X9516530Y3051170D01*
X9507050Y3035300D01*
X9459640Y3003550D01*
X9438300Y2981320D01*
X9424080Y2949570D01*
X9419340Y2921000D01*
X9518900D01*
G01X9659620Y3111500D02*
X9640650Y3105150D01*
X9626430Y3089270D01*
X9616950Y3070230D01*
X9609840Y3044820D01*
X9607470Y3016250D01*
X9609840Y2987670D01*
X9616950Y2962270D01*
X9626430Y2943220D01*
X9640650Y2927350D01*
X9659620Y2921000D01*
X9678580Y2927350D01*
X9692810Y2943220D01*
X9702290Y2962270D01*
X9709400Y2987670D01*
X9711770Y3016250D01*
X9709400Y3044820D01*
X9702290Y3070230D01*
X9692810Y3089270D01*
X9678580Y3105150D01*
X9659620Y3111500D01*
G01X9805080Y3079750D02*
X9819300Y3098800D01*
X9835900Y3108330D01*
X9854860Y3111500D01*
X9878570Y3105150D01*
X9895160Y3089270D01*
X9899900Y3070230D01*
X9897530Y3051170D01*
X9888050Y3035300D01*
X9840640Y3003550D01*
X9819300Y2981320D01*
X9805080Y2949570D01*
X9800340Y2921000D01*
X9899900D01*
G01X9988470Y2959100D02*
X10002690Y2936870D01*
X10021650Y2924170D01*
X10042990Y2921000D01*
X10061960Y2924170D01*
X10080920Y2940050D01*
X10092770Y2959100D01*
X10095140Y2978150D01*
X10090400Y3000370D01*
X10073810Y3016250D01*
X10057210Y3022600D01*
X10035880D01*
G01X10057210D02*
X10071440Y3032120D01*
X10083290Y3048000D01*
X10088030Y3067050D01*
X10083290Y3086100D01*
X10071440Y3101970D01*
X10050100Y3111500D01*
X10028770Y3108330D01*
X10007430Y3095620D01*
G01X4600790Y2286000D02*
Y2364740D01*
X4625130D01*
X4632920Y2360800D01*
X4637790Y2355550D01*
X4639730Y2345050D01*
X4637790Y2334560D01*
X4631940Y2328000D01*
X4625130Y2324060D01*
X4600790D01*
G01X4625130D02*
X4639730Y2286000D01*
G01X4699000D02*
Y2364740D01*
X4687320Y2348990D01*
G01Y2286000D02*
X4710680D01*
G01X4759240Y2351620D02*
X4765080Y2359490D01*
X4771900Y2363430D01*
X4779690Y2364740D01*
X4789420Y2362120D01*
X4796240Y2355550D01*
X4798190Y2347680D01*
X4797210Y2339800D01*
X4793320Y2333240D01*
X4773850Y2320120D01*
X4765080Y2310930D01*
X4759240Y2297810D01*
X4757290Y2286000D01*
X4798190D01*
G01X6604000Y127000D02*
Y635000D01*
X5334000D01*
Y127000D01*
X6604000D01*
G01X5419340Y1619250D02*
X5466760D01*
Y1562100D01*
X5452530Y1543050D01*
X5435940Y1530350D01*
X5412230Y1524000D01*
X5388530Y1530350D01*
X5371930Y1543050D01*
X5357710Y1562100D01*
X5348220Y1584320D01*
X5343480Y1609720D01*
Y1631950D01*
X5348220Y1651000D01*
X5357710Y1673230D01*
X5371930Y1692270D01*
X5386150Y1704970D01*
X5405120Y1714500D01*
X5421710D01*
X5440680Y1708150D01*
X5454900Y1695450D01*
G01X5567170Y1714500D02*
X5624060D01*
G01X5595620D02*
Y1524000D01*
G01X5567170D02*
X5624060D01*
G01X5786120D02*
X5767150Y1527170D01*
X5750560Y1539870D01*
X5736340Y1558920D01*
X5726850Y1581150D01*
X5722110Y1606550D01*
Y1631950D01*
X5726850Y1657350D01*
X5736340Y1679580D01*
X5750560Y1698620D01*
X5767150Y1711330D01*
X5786120Y1714500D01*
X5805080Y1711330D01*
X5821680Y1698620D01*
X5835900Y1679580D01*
X5845390Y1657350D01*
X5850130Y1631950D01*
Y1606550D01*
X5845390Y1581150D01*
X5835900Y1558920D01*
X5821680Y1539870D01*
X5805080Y1527170D01*
X5786120Y1524000D01*
G01X6219270Y1698620D02*
X6205050Y1708150D01*
X6188460Y1714500D01*
X6169490D01*
X6148150Y1704970D01*
X6131560Y1689100D01*
X6119710Y1670050D01*
X6110220Y1638300D01*
X6107850Y1609720D01*
X6112600Y1581150D01*
X6119710Y1562100D01*
X6133930Y1543050D01*
X6150530Y1530350D01*
X6167120Y1524000D01*
X6183710D01*
X6200310Y1530350D01*
X6214530Y1539870D01*
X6226390Y1552570D01*
G01X6307840Y1524000D02*
Y1714500D01*
G01X6407400D02*
Y1524000D01*
G01Y1619250D02*
X6307840D01*
G01X6548120Y1524000D02*
X6529150Y1527170D01*
X6512560Y1539870D01*
X6498340Y1558920D01*
X6488850Y1581150D01*
X6484110Y1606550D01*
Y1631950D01*
X6488850Y1657350D01*
X6498340Y1679580D01*
X6512560Y1698620D01*
X6529150Y1711330D01*
X6548120Y1714500D01*
X6567080Y1711330D01*
X6583680Y1698620D01*
X6597900Y1679580D01*
X6607390Y1657350D01*
X6612130Y1631950D01*
Y1606550D01*
X6607390Y1581150D01*
X6597900Y1558920D01*
X6583680Y1539870D01*
X6567080Y1527170D01*
X6548120Y1524000D01*
G01X6710170Y1714500D02*
X6767060D01*
G01X6738620D02*
Y1524000D01*
G01X6710170D02*
X6767060D01*
G01X6924380Y1489080D02*
X6933860Y1530350D01*
G01X7262710Y1562100D02*
X7274560Y1543050D01*
X7288780Y1530350D01*
X7305380Y1524000D01*
X7324340Y1530350D01*
X7338570Y1543050D01*
X7352790Y1562100D01*
X7357530Y1587500D01*
Y1714500D01*
G01X7472170D02*
X7529060D01*
G01X7500620D02*
Y1524000D01*
G01X7472170D02*
X7529060D01*
G01X7710080Y1625600D02*
X7719570Y1635120D01*
X7726680Y1651000D01*
X7731420Y1673230D01*
X7726680Y1692270D01*
X7717200Y1704970D01*
X7700600Y1714500D01*
X7636600D01*
Y1524000D01*
X7714830D01*
X7731420Y1536700D01*
X7740900Y1555750D01*
X7745640Y1577980D01*
X7740900Y1600200D01*
X7726680Y1619250D01*
X7710080Y1625600D01*
X7636600D01*
G01X7853170Y1714500D02*
X7910060D01*
G01X7881620D02*
Y1524000D01*
G01X7853170D02*
X7910060D01*
G01X8017600D02*
Y1714500D01*
X8126640Y1524000D01*
Y1714500D01*
G01X8453120Y1524000D02*
X8434150Y1527170D01*
X8417560Y1539870D01*
X8403340Y1558920D01*
X8393850Y1581150D01*
X8389110Y1606550D01*
Y1631950D01*
X8393850Y1657350D01*
X8403340Y1679580D01*
X8417560Y1698620D01*
X8434150Y1711330D01*
X8453120Y1714500D01*
X8472080Y1711330D01*
X8488680Y1698620D01*
X8502900Y1679580D01*
X8512390Y1657350D01*
X8517130Y1631950D01*
Y1606550D01*
X8512390Y1581150D01*
X8502900Y1558920D01*
X8488680Y1539870D01*
X8472080Y1527170D01*
X8453120Y1524000D01*
G01X8593840D02*
Y1714500D01*
G01X8693400D02*
Y1524000D01*
G01Y1619250D02*
X8593840D01*
G01X8829380Y1489080D02*
X8838860Y1530350D01*
G01X9165340Y1524000D02*
Y1714500D01*
G01X9264900D02*
Y1524000D01*
G01Y1619250D02*
X9165340D01*
G01X9453030Y1524000D02*
X9358210D01*
Y1714500D01*
X9453030D01*
G01X9415100Y1622430D02*
X9358210D01*
G01X9643530Y1524000D02*
X9548710D01*
Y1714500D01*
X9643530D01*
G01X9605600Y1622430D02*
X9548710D01*
G01X9786620Y1524000D02*
Y1609720D01*
X9739210Y1714500D01*
G01X9834030D02*
X9786620Y1609720D01*
G01X10024530Y1524000D02*
X9929710D01*
Y1714500D01*
X10024530D01*
G01X9986600Y1622430D02*
X9929710D01*
G01X10167620Y1524000D02*
X10148650Y1527170D01*
X10132060Y1539870D01*
X10117840Y1558920D01*
X10108350Y1581150D01*
X10103610Y1606550D01*
Y1631950D01*
X10108350Y1657350D01*
X10117840Y1679580D01*
X10132060Y1698620D01*
X10148650Y1711330D01*
X10167620Y1714500D01*
X10186580Y1711330D01*
X10203180Y1698620D01*
X10217400Y1679580D01*
X10226890Y1657350D01*
X10231630Y1631950D01*
Y1606550D01*
X10226890Y1581150D01*
X10217400Y1558920D01*
X10203180Y1539870D01*
X10186580Y1527170D01*
X10167620Y1524000D01*
G01X10303600D02*
Y1714500D01*
X10412640Y1524000D01*
Y1714500D01*
G01X10691710D02*
Y1524000D01*
X10786530D01*
G01X10977030D02*
X10882210D01*
Y1714500D01*
X10977030D01*
G01X10939100Y1622430D02*
X10882210D01*
G01X11167530Y1524000D02*
X11072710D01*
Y1714500D01*
X11167530D01*
G01X11129600Y1622430D02*
X11072710D01*
G01X5867400Y3810000D02*
X6578600D01*
Y3556000D01*
X5867400D01*
Y3810000D01*
G01X5527040Y4413250D02*
Y4730750D01*
X5479800Y4667250D01*
G01Y4413250D02*
X5574280D01*
G01X5755390Y4476750D02*
X5779000Y4439700D01*
X5810500Y4418540D01*
X5845940Y4413250D01*
X5877440Y4418540D01*
X5908930Y4444990D01*
X5928610Y4476750D01*
X5932550Y4508500D01*
X5924680Y4545530D01*
X5897120Y4572000D01*
X5869560Y4582590D01*
X5834120D01*
G01X5869560D02*
X5893180Y4598460D01*
X5912870Y4624910D01*
X5920740Y4656660D01*
X5912870Y4688420D01*
X5893180Y4714870D01*
X5857750Y4730750D01*
X5822320Y4725460D01*
X5786880Y4704290D01*
G01X6156960Y4730750D02*
X6125460Y4720170D01*
X6101840Y4693710D01*
X6086090Y4661960D01*
X6074280Y4619620D01*
X6070350Y4572000D01*
X6074280Y4524370D01*
X6086090Y4482040D01*
X6101840Y4450280D01*
X6125460Y4423830D01*
X6156960Y4413250D01*
X6188450Y4423830D01*
X6212080Y4450280D01*
X6227830Y4482040D01*
X6239640Y4524370D01*
X6243570Y4572000D01*
X6239640Y4619620D01*
X6227830Y4661960D01*
X6212080Y4693710D01*
X6188450Y4720170D01*
X6156960Y4730750D01*
G01X6164160Y3683000D02*
Y3761740D01*
X6188500D01*
X6196290Y3757800D01*
X6201160Y3752550D01*
X6203100Y3742050D01*
X6201160Y3731560D01*
X6195310Y3725000D01*
X6188500Y3721060D01*
X6164160D01*
G01X6188500D02*
X6203100Y3683000D01*
G01X6245820Y3692180D02*
X6252630Y3685620D01*
X6260420Y3683000D01*
X6268210Y3685620D01*
X6275030Y3693500D01*
X6279900Y3705310D01*
X6281840Y3717120D01*
Y3731560D01*
X6279900Y3743370D01*
X6275030Y3753870D01*
X6269190Y3759120D01*
X6262370Y3761740D01*
X6254580Y3759120D01*
X6248740Y3753870D01*
X6244840Y3745990D01*
X6242900Y3735490D01*
X6244840Y3726310D01*
X6249710Y3717120D01*
X6255550Y3711870D01*
X6262370Y3710560D01*
X6270160Y3713180D01*
X6276000Y3719740D01*
X6281840Y3731560D01*
G01X6513190Y4572000D02*
X15500000D01*
G01X7307160Y635000D02*
Y713740D01*
X7331500D01*
X7339290Y709800D01*
X7344160Y704550D01*
X7346100Y694050D01*
X7344160Y683560D01*
X7338310Y677000D01*
X7331500Y673060D01*
X7307160D01*
G01X7331500D02*
X7346100Y635000D01*
G01X7417050D02*
Y713740D01*
X7381030Y657310D01*
X7429710D01*
G01X7010400Y762000D02*
X7721600D01*
Y508000D01*
X7010400D01*
Y762000D01*
G01X7307160Y254000D02*
Y332740D01*
X7331500D01*
X7339290Y328800D01*
X7344160Y323550D01*
X7346100Y313050D01*
X7344160Y302560D01*
X7338310Y296000D01*
X7331500Y292060D01*
X7307160D01*
G01X7331500D02*
X7346100Y254000D01*
G01X7383950Y265810D02*
X7389790Y259250D01*
X7396610Y255310D01*
X7405370Y254000D01*
X7414130Y256620D01*
X7420950Y261870D01*
X7425820Y271060D01*
X7426790Y281560D01*
X7424840Y292060D01*
X7419970Y298620D01*
X7413160Y303870D01*
X7406340Y305180D01*
X7399530Y303870D01*
X7390770Y298620D01*
X7393690Y332740D01*
X7419970D01*
G01X7010400Y381000D02*
X7721600D01*
Y127000D01*
X7010400D01*
Y381000D01*
G01X8991600Y508000D02*
X8280400D01*
Y762000D01*
X8991600D01*
Y508000D01*
G01X8280400Y381000D02*
X8991600D01*
Y127000D01*
X8280400D01*
Y381000D01*
G01X8577160Y635000D02*
Y713740D01*
X8601500D01*
X8609290Y709800D01*
X8614160Y704550D01*
X8616100Y694050D01*
X8614160Y683560D01*
X8608310Y677000D01*
X8601500Y673060D01*
X8577160D01*
G01X8601500D02*
X8616100Y635000D01*
G01X8653950Y650750D02*
X8659790Y641560D01*
X8667580Y636310D01*
X8676340Y635000D01*
X8684130Y636310D01*
X8691920Y642870D01*
X8696790Y650750D01*
X8697760Y658620D01*
X8695820Y667810D01*
X8689000Y674370D01*
X8682190Y677000D01*
X8673420D01*
G01X8682190D02*
X8688030Y680930D01*
X8692900Y687490D01*
X8694840Y695370D01*
X8692900Y703240D01*
X8688030Y709800D01*
X8679260Y713740D01*
X8670500Y712430D01*
X8661740Y707180D01*
G01X8577160Y254000D02*
Y332740D01*
X8601500D01*
X8609290Y328800D01*
X8614160Y323550D01*
X8616100Y313050D01*
X8614160Y302560D01*
X8608310Y296000D01*
X8601500Y292060D01*
X8577160D01*
G01X8601500D02*
X8616100Y254000D01*
G01X8673420D02*
X8675370Y271060D01*
X8678290Y285490D01*
X8682190Y298620D01*
X8687050Y313050D01*
X8694840Y332740D01*
X8655900D01*
G01X9057810Y2286000D02*
Y2194980D01*
X9064240Y2175930D01*
X9077110Y2163230D01*
X9093200Y2159000D01*
X9109290Y2163230D01*
X9122160Y2175930D01*
X9128590Y2194980D01*
Y2286000D01*
G01X9187350Y2184400D02*
X9197000Y2169580D01*
X9209870Y2161120D01*
X9224350Y2159000D01*
X9237220Y2161120D01*
X9250090Y2171700D01*
X9258130Y2184400D01*
X9259740Y2197100D01*
X9256520Y2211910D01*
X9245260Y2222500D01*
X9234000Y2226730D01*
X9219520D01*
G01X9234000D02*
X9243650Y2233080D01*
X9251700Y2243660D01*
X9254910Y2256370D01*
X9251700Y2269070D01*
X9243650Y2279650D01*
X9229170Y2286000D01*
X9214700Y2283880D01*
X9200220Y2275420D01*
G01X9753600Y3556000D02*
X9042400D01*
Y3810000D01*
X9753600D01*
Y3556000D01*
G01X9083040Y4921250D02*
Y5238750D01*
X9035800Y5175250D01*
G01Y4921250D02*
X9130280D01*
G01X9398000D02*
X9425560Y4926540D01*
X9457050Y4942410D01*
X9476740Y4968860D01*
X9484610Y5005920D01*
X9476740Y5042950D01*
X9453120Y5074700D01*
X9417680Y5090590D01*
X9378320D01*
X9354690Y5101170D01*
X9335000Y5127620D01*
X9327130Y5164660D01*
X9338950Y5201710D01*
X9366500Y5228170D01*
X9398000Y5238750D01*
X9429490Y5228170D01*
X9457050Y5201710D01*
X9468870Y5164660D01*
X9460990Y5127620D01*
X9441310Y5101170D01*
X9417680Y5090590D01*
X9378320D01*
X9342880Y5074700D01*
X9319260Y5042950D01*
X9311390Y5005920D01*
X9319260Y4968860D01*
X9338950Y4942410D01*
X9370440Y4926540D01*
X9398000Y4921250D01*
G01X9712960Y5238750D02*
X9681460Y5228170D01*
X9657840Y5201710D01*
X9642090Y5169960D01*
X9630280Y5127620D01*
X9626350Y5080000D01*
X9630280Y5032370D01*
X9642090Y4990040D01*
X9657840Y4958280D01*
X9681460Y4931830D01*
X9712960Y4921250D01*
X9744450Y4931830D01*
X9768080Y4958280D01*
X9783830Y4990040D01*
X9795640Y5032370D01*
X9799570Y5080000D01*
X9795640Y5127620D01*
X9783830Y5169960D01*
X9768080Y5201710D01*
X9744450Y5228170D01*
X9712960Y5238750D01*
G01X10515600Y127000D02*
X9804400D01*
Y381000D01*
X10515600D01*
Y127000D01*
G01Y508000D02*
X9804400D01*
Y762000D01*
X10515600D01*
Y508000D01*
G01X9299790Y3683000D02*
Y3761740D01*
X9324130D01*
X9331920Y3757800D01*
X9336790Y3752550D01*
X9338730Y3742050D01*
X9336790Y3731560D01*
X9330940Y3725000D01*
X9324130Y3721060D01*
X9299790D01*
G01X9324130D02*
X9338730Y3683000D01*
G01X9398000D02*
Y3761740D01*
X9386320Y3745990D01*
G01Y3683000D02*
X9409680D01*
G01X9474790D02*
X9476740Y3700060D01*
X9479660Y3714490D01*
X9483560Y3727620D01*
X9488420Y3742050D01*
X9496210Y3761740D01*
X9457270D01*
G01X10061790Y254000D02*
Y332740D01*
X10086130D01*
X10093920Y328800D01*
X10098790Y323550D01*
X10100730Y313050D01*
X10098790Y302560D01*
X10092940Y296000D01*
X10086130Y292060D01*
X10061790D01*
G01X10086130D02*
X10100730Y254000D01*
G01X10160000D02*
Y332740D01*
X10148320Y316990D01*
G01Y254000D02*
X10171680D01*
G01X10238740Y332740D02*
X10230950Y330120D01*
X10225110Y323550D01*
X10221210Y315680D01*
X10218290Y305180D01*
X10217320Y293370D01*
X10218290Y281560D01*
X10221210Y271060D01*
X10225110Y263180D01*
X10230950Y256620D01*
X10238740Y254000D01*
X10246530Y256620D01*
X10252370Y263180D01*
X10256270Y271060D01*
X10259190Y281560D01*
X10260160Y293370D01*
X10259190Y305180D01*
X10256270Y315680D01*
X10252370Y323550D01*
X10246530Y330120D01*
X10238740Y332740D01*
G01X10101160Y635000D02*
Y713740D01*
X10125500D01*
X10133290Y709800D01*
X10138160Y704550D01*
X10140100Y694050D01*
X10138160Y683560D01*
X10132310Y677000D01*
X10125500Y673060D01*
X10101160D01*
G01X10125500D02*
X10140100Y635000D01*
G01X10199370D02*
X10206190Y636310D01*
X10213970Y640250D01*
X10218840Y646810D01*
X10220790Y656000D01*
X10218840Y665180D01*
X10213000Y673060D01*
X10204240Y677000D01*
X10194500D01*
X10188660Y679620D01*
X10183790Y686180D01*
X10181840Y695370D01*
X10184770Y704550D01*
X10191580Y711120D01*
X10199370Y713740D01*
X10207160Y711120D01*
X10213970Y704550D01*
X10216900Y695370D01*
X10214950Y686180D01*
X10210080Y679620D01*
X10204240Y677000D01*
X10194500D01*
X10185740Y673060D01*
X10179900Y665180D01*
X10177950Y656000D01*
X10179900Y646810D01*
X10184770Y640250D01*
X10192550Y636310D01*
X10199370Y635000D01*
G01X11277600Y3556000D02*
X10566400D01*
Y3810000D01*
X11277600D01*
Y3556000D01*
G01X10069190Y5080000D02*
X18000000D01*
G01X11192090Y279400D02*
X11200130Y266700D01*
X11209780Y258230D01*
X11221040Y254000D01*
X11233910Y258230D01*
X11243560Y266700D01*
X11253220Y279400D01*
X11256430Y296330D01*
Y381000D01*
G01X11323230Y359830D02*
X11332890Y372530D01*
X11344150Y378880D01*
X11357020Y381000D01*
X11373100Y376770D01*
X11384370Y366180D01*
X11387580Y353490D01*
X11385970Y340780D01*
X11379540Y330200D01*
X11347370Y309030D01*
X11332890Y294220D01*
X11323230Y273050D01*
X11320020Y254000D01*
X11387580D01*
G01X10823790Y3683000D02*
Y3761740D01*
X10848130D01*
X10855920Y3757800D01*
X10860790Y3752550D01*
X10862730Y3742050D01*
X10860790Y3731560D01*
X10854940Y3725000D01*
X10848130Y3721060D01*
X10823790D01*
G01X10848130D02*
X10862730Y3683000D01*
G01X10922000D02*
Y3761740D01*
X10910320Y3745990D01*
G01Y3683000D02*
X10933680D01*
G01X10982240Y3715810D02*
X10989060Y3725000D01*
X10994900Y3730240D01*
X11002690Y3732870D01*
X11009500Y3730240D01*
X11014370Y3725000D01*
X11018270Y3717120D01*
X11019240Y3707930D01*
X11018270Y3700060D01*
X11014370Y3692180D01*
X11008530Y3685620D01*
X11001710Y3683000D01*
X10993920Y3685620D01*
X10987110Y3693500D01*
X10983210Y3705310D01*
X10982240Y3718430D01*
X10984190Y3735490D01*
X10987110Y3744680D01*
X10991980Y3753870D01*
X10998790Y3760430D01*
X11005610Y3761740D01*
X11012420Y3759120D01*
X11017290Y3752550D01*
G01X12700000Y127000D02*
Y635000D01*
X11430000D01*
Y127000D01*
X12700000D01*
G01X12091840Y3429000D02*
Y3556000D01*
X12124010D01*
X12136880Y3549650D01*
X12146530Y3541180D01*
X12154580Y3528490D01*
X12161010Y3513660D01*
X12162620Y3492500D01*
X12161010Y3471330D01*
X12154580Y3456510D01*
X12146530Y3443810D01*
X12136880Y3435350D01*
X12124010Y3429000D01*
X12091840D01*
G01X12256770D02*
Y3556000D01*
X12237470Y3530600D01*
G01Y3429000D02*
X12276070D01*
G01X12446000Y3683000D02*
G03I-254000J0D01*
G01X12070420Y3810000D02*
Y3873500D01*
G01X12096160D02*
X12070420Y3834340D01*
G01X12100220Y3810000D02*
X12081930Y3852330D01*
G01X12726840Y3429000D02*
Y3556000D01*
X12759010D01*
X12771880Y3549650D01*
X12781530Y3541180D01*
X12789580Y3528490D01*
X12796010Y3513660D01*
X12797620Y3492500D01*
X12796010Y3471330D01*
X12789580Y3456510D01*
X12781530Y3443810D01*
X12771880Y3435350D01*
X12759010Y3429000D01*
X12726840D01*
G01X12861200Y3534830D02*
X12870860Y3547530D01*
X12882120Y3553880D01*
X12894990Y3556000D01*
X12911070Y3551770D01*
X12922340Y3541180D01*
X12925550Y3528490D01*
X12923940Y3515780D01*
X12917510Y3505200D01*
X12885340Y3484030D01*
X12870860Y3469220D01*
X12861200Y3448050D01*
X12857990Y3429000D01*
X12925550D01*
G01X13081000Y3683000D02*
G03I-254000J0D01*
G01X12322390Y3810000D02*
X12339320Y3873500D01*
X12356250Y3810000D01*
G01X12350160Y3832220D02*
X12328480D01*
G01X12705420Y3810000D02*
Y3873500D01*
G01X12731160D02*
X12705420Y3834340D01*
G01X12735220Y3810000D02*
X12716930Y3852330D01*
G01X13617790Y3683000D02*
Y3761740D01*
X13642130D01*
X13649920Y3757800D01*
X13654790Y3752550D01*
X13656730Y3742050D01*
X13654790Y3731560D01*
X13648940Y3725000D01*
X13642130Y3721060D01*
X13617790D01*
G01X13642130D02*
X13656730Y3683000D01*
G01X13716000D02*
Y3761740D01*
X13704320Y3745990D01*
G01Y3683000D02*
X13727680D01*
G01X13773320Y3694810D02*
X13779160Y3688250D01*
X13785980Y3684310D01*
X13794740Y3683000D01*
X13803500Y3685620D01*
X13810320Y3690870D01*
X13815190Y3700060D01*
X13816160Y3710560D01*
X13814210Y3721060D01*
X13809340Y3727620D01*
X13802530Y3732870D01*
X13795710Y3734180D01*
X13788900Y3732870D01*
X13780140Y3727620D01*
X13783060Y3761740D01*
X13809340D01*
G01X13360400Y3810000D02*
X14071600D01*
Y3556000D01*
X13360400D01*
Y3810000D01*
G01X12957390D02*
X12974320Y3873500D01*
X12991250Y3810000D01*
G01X12985160Y3832220D02*
X12963480D01*
G01X13998790Y635000D02*
Y713740D01*
X14023130D01*
X14030920Y709800D01*
X14035790Y704550D01*
X14037730Y694050D01*
X14035790Y683560D01*
X14029940Y677000D01*
X14023130Y673060D01*
X13998790D01*
G01X14023130D02*
X14037730Y635000D01*
G01X14097000D02*
Y713740D01*
X14085320Y697990D01*
G01Y635000D02*
X14108680D01*
G01X14175740D02*
Y713740D01*
X14164060Y697990D01*
G01Y635000D02*
X14187420D01*
G01X13741400Y762000D02*
X14452600D01*
Y508000D01*
X13741400D01*
Y762000D01*
G01X13998790Y254000D02*
Y332740D01*
X14023130D01*
X14030920Y328800D01*
X14035790Y323550D01*
X14037730Y313050D01*
X14035790Y302560D01*
X14029940Y296000D01*
X14023130Y292060D01*
X13998790D01*
G01X14023130D02*
X14037730Y254000D01*
G01X14097000D02*
Y332740D01*
X14085320Y316990D01*
G01Y254000D02*
X14108680D01*
G01X14154320Y269750D02*
X14160160Y260560D01*
X14167950Y255310D01*
X14176710Y254000D01*
X14184500Y255310D01*
X14192290Y261870D01*
X14197160Y269750D01*
X14198130Y277620D01*
X14196190Y286810D01*
X14189370Y293370D01*
X14182560Y296000D01*
X14173790D01*
G01X14182560D02*
X14188400Y299930D01*
X14193270Y306490D01*
X14195210Y314370D01*
X14193270Y322240D01*
X14188400Y328800D01*
X14179630Y332740D01*
X14170870Y331430D01*
X14162110Y326180D01*
G01X13741400Y381000D02*
X14452600D01*
Y127000D01*
X13741400D01*
Y381000D01*
G01X13817600Y3149600D02*
X13970000D01*
X14033500Y3079750D01*
X14160500D01*
X14224000Y3149600D01*
X14376400D01*
Y927100D01*
X13817600D01*
Y3149600D01*
G01X13996840Y2159000D02*
Y2067980D01*
X14003270Y2048930D01*
X14016140Y2036230D01*
X14032230Y2032000D01*
X14048320Y2036230D01*
X14061190Y2048930D01*
X14067620Y2067980D01*
Y2159000D01*
G01X14181070Y2032000D02*
Y2159000D01*
X14121550Y2067980D01*
X14201990D01*
G01X14304430Y3328430D02*
X14301890Y3325380D01*
X14300200Y3321830D01*
Y3317760D01*
X14302740Y3313180D01*
X14306970Y3309630D01*
X14312050Y3307080D01*
X14320520Y3305050D01*
X14328140Y3304540D01*
X14335760Y3305560D01*
X14340840Y3307080D01*
X14345920Y3310130D01*
X14349310Y3313690D01*
X14351000Y3317250D01*
Y3320810D01*
X14349310Y3324370D01*
X14346770Y3327420D01*
X14343380Y3329960D01*
G01X14351000Y3350250D02*
X14350150Y3346180D01*
X14346770Y3342630D01*
X14341690Y3339570D01*
X14335760Y3337540D01*
X14328990Y3336520D01*
X14322210D01*
X14315440Y3337540D01*
X14309510Y3339570D01*
X14304430Y3342630D01*
X14301050Y3346180D01*
X14300200Y3350250D01*
X14301050Y3354320D01*
X14304430Y3357870D01*
X14309510Y3360930D01*
X14315440Y3362960D01*
X14322210Y3363980D01*
X14328990D01*
X14335760Y3362960D01*
X14341690Y3360930D01*
X14346770Y3357870D01*
X14350150Y3354320D01*
X14351000Y3350250D01*
G01X14300200Y3373080D02*
X14351000D01*
Y3393420D01*
G01X14300200Y3439080D02*
X14351000D01*
Y3459420D01*
G01X14300200Y3482250D02*
X14351000D01*
G01X14317130Y3475130D02*
Y3489370D01*
G01X14300200Y3524400D02*
X14351000D01*
G01X14343380D02*
X14347610Y3522370D01*
X14350150Y3519320D01*
X14351000Y3515760D01*
X14349310Y3511690D01*
X14345070Y3508640D01*
X14339990Y3506610D01*
X14334070Y3506100D01*
X14328140Y3506610D01*
X14323060Y3508640D01*
X14318830Y3511690D01*
X14317130Y3515760D01*
X14317980Y3519320D01*
X14319670Y3521860D01*
X14323060Y3524400D01*
G01X14352690Y3548250D02*
X14351850Y3547230D01*
X14350150D01*
X14349310Y3548250D01*
X14350150Y3549270D01*
X14351850D01*
X14352690Y3548250D01*
G01X14240080Y3835400D02*
X14248130Y3822700D01*
X14257770Y3814230D01*
X14269030Y3810000D01*
X14281900Y3814230D01*
X14291550Y3822700D01*
X14301200Y3835400D01*
X14304420Y3852330D01*
Y3937000D01*
G01X14366370Y3835400D02*
X14376010Y3820580D01*
X14388880Y3812120D01*
X14403360Y3810000D01*
X14416230Y3812120D01*
X14429090Y3822700D01*
X14437130Y3835400D01*
X14438740Y3848100D01*
X14435530Y3862910D01*
X14424270Y3873500D01*
X14413010Y3877730D01*
X14398530D01*
G01X14413010D02*
X14422660Y3884080D01*
X14430700Y3894660D01*
X14433920Y3907370D01*
X14430700Y3920070D01*
X14422660Y3930650D01*
X14408180Y3937000D01*
X14393710Y3934880D01*
X14379230Y3926420D01*
G01X15234000Y3306000D02*
Y3806000D01*
X14484000D01*
Y3369500D01*
X14547500Y3306000D01*
X15234000D01*
G01X15100000Y4509500D02*
X15500000Y4572000D01*
X15100000Y4634500D01*
Y4509500D01*
G01X15522790Y254000D02*
Y332740D01*
X15547130D01*
X15554920Y328800D01*
X15559790Y323550D01*
X15561730Y313050D01*
X15559790Y302560D01*
X15553940Y296000D01*
X15547130Y292060D01*
X15522790D01*
G01X15547130D02*
X15561730Y254000D01*
G01X15621000D02*
Y332740D01*
X15609320Y316990D01*
G01Y254000D02*
X15632680D01*
G01X15711420D02*
Y332740D01*
X15675400Y276310D01*
X15724080D01*
G01X15265400Y381000D02*
X15976600D01*
Y127000D01*
X15265400D01*
Y381000D01*
G01X15341600Y3149600D02*
X15494000D01*
X15557500Y3079750D01*
X15684500D01*
X15748000Y3149600D01*
X15900400D01*
Y927100D01*
X15341600D01*
Y3149600D01*
G01X15520840Y2159000D02*
Y2067980D01*
X15527270Y2048930D01*
X15540140Y2036230D01*
X15556230Y2032000D01*
X15572320Y2036230D01*
X15585190Y2048930D01*
X15591620Y2067980D01*
Y2159000D01*
G01X15650380Y2051050D02*
X15660030Y2040460D01*
X15671290Y2034120D01*
X15685770Y2032000D01*
X15700250Y2036230D01*
X15711510Y2044700D01*
X15719550Y2059510D01*
X15721160Y2076450D01*
X15717940Y2093380D01*
X15709900Y2103970D01*
X15698640Y2112430D01*
X15687380Y2114550D01*
X15676120Y2112430D01*
X15661640Y2103970D01*
X15666470Y2159000D01*
X15709900D01*
G01X15500000Y4250000D02*
Y4822000D01*
G01X16506270Y428620D02*
X16492050Y438150D01*
X16475460Y444500D01*
X16456490D01*
X16435150Y434970D01*
X16418560Y419100D01*
X16406710Y400050D01*
X16397220Y368300D01*
X16394850Y339720D01*
X16399600Y311150D01*
X16406710Y292100D01*
X16420930Y273050D01*
X16437530Y260350D01*
X16454120Y254000D01*
X16470710D01*
X16487310Y260350D01*
X16501530Y269870D01*
X16513390Y282570D01*
G01X16644620Y254000D02*
X16625650Y257170D01*
X16609060Y269870D01*
X16594840Y288920D01*
X16585350Y311150D01*
X16580610Y336550D01*
Y361950D01*
X16585350Y387350D01*
X16594840Y409580D01*
X16609060Y428620D01*
X16625650Y441330D01*
X16644620Y444500D01*
X16663580Y441330D01*
X16680180Y428620D01*
X16694400Y409580D01*
X16703890Y387350D01*
X16708630Y361950D01*
Y336550D01*
X16703890Y311150D01*
X16694400Y288920D01*
X16680180Y269870D01*
X16663580Y257170D01*
X16644620Y254000D01*
G01X16787710Y444500D02*
Y254000D01*
X16882530D01*
G01X17168710Y444500D02*
Y254000D01*
X17263530D01*
G01X17406620Y444500D02*
Y254000D01*
G01X17373430Y381000D02*
X17439810D01*
G01X17639790Y444500D02*
Y254000D01*
G01Y282570D02*
X17630310Y266700D01*
X17616080Y257170D01*
X17599490Y254000D01*
X17580530Y260350D01*
X17566300Y276220D01*
X17556820Y295270D01*
X17554450Y317500D01*
X17556820Y339720D01*
X17566300Y358780D01*
X17580530Y374650D01*
X17599490Y381000D01*
X17616080Y377820D01*
X17627940Y371470D01*
X17639790Y358780D01*
G01X17787620Y247650D02*
X17782880Y250830D01*
Y257170D01*
X17787620Y260350D01*
X17792360Y257170D01*
Y250830D01*
X17787620Y247650D01*
G01X16641000Y2034000D02*
X17141000D01*
Y2284000D01*
X16704500D01*
X16641000Y2220500D01*
Y2034000D01*
G01X16663430Y2459570D02*
X16660380Y2462110D01*
X16656830Y2463800D01*
X16652760D01*
X16648180Y2461260D01*
X16644630Y2457030D01*
X16642080Y2451950D01*
X16640050Y2443480D01*
X16639540Y2435860D01*
X16640560Y2428240D01*
X16642080Y2423160D01*
X16645130Y2418080D01*
X16648690Y2414690D01*
X16652250Y2413000D01*
X16655810D01*
X16659370Y2414690D01*
X16662420Y2417230D01*
X16664960Y2420620D01*
G01X16685250Y2413000D02*
X16681180Y2413850D01*
X16677630Y2417230D01*
X16674570Y2422310D01*
X16672540Y2428240D01*
X16671520Y2435010D01*
Y2441790D01*
X16672540Y2448560D01*
X16674570Y2454490D01*
X16677630Y2459570D01*
X16681180Y2462950D01*
X16685250Y2463800D01*
X16689320Y2462950D01*
X16692870Y2459570D01*
X16695930Y2454490D01*
X16697960Y2448560D01*
X16698980Y2441790D01*
Y2435010D01*
X16697960Y2428240D01*
X16695930Y2422310D01*
X16692870Y2417230D01*
X16689320Y2413850D01*
X16685250Y2413000D01*
G01X16708080Y2463800D02*
Y2413000D01*
X16728420D01*
G01X16774080Y2463800D02*
Y2413000D01*
X16794420D01*
G01X16817250Y2463800D02*
Y2413000D01*
G01X16810130Y2446870D02*
X16824370D01*
G01X16859400Y2463800D02*
Y2413000D01*
G01Y2420620D02*
X16857370Y2416390D01*
X16854320Y2413850D01*
X16850760Y2413000D01*
X16846690Y2414690D01*
X16843640Y2418930D01*
X16841610Y2424010D01*
X16841100Y2429930D01*
X16841610Y2435860D01*
X16843640Y2440940D01*
X16846690Y2445170D01*
X16850760Y2446870D01*
X16854320Y2446020D01*
X16856860Y2444330D01*
X16859400Y2440940D01*
G01X16883250Y2411310D02*
X16882230Y2412150D01*
Y2413850D01*
X16883250Y2414690D01*
X16884270Y2413850D01*
Y2412150D01*
X16883250Y2411310D01*
G01X17276000Y1020000D02*
X17776000D01*
Y1520000D01*
X17339500D01*
X17276000Y1456500D01*
Y1020000D01*
G01X17298430Y1824570D02*
X17295380Y1827110D01*
X17291830Y1828800D01*
X17287760D01*
X17283180Y1826260D01*
X17279630Y1822030D01*
X17277080Y1816950D01*
X17275050Y1808480D01*
X17274540Y1800860D01*
X17275560Y1793240D01*
X17277080Y1788160D01*
X17280130Y1783080D01*
X17283690Y1779690D01*
X17287250Y1778000D01*
X17290810D01*
X17294370Y1779690D01*
X17297420Y1782230D01*
X17299960Y1785620D01*
G01X17320250Y1778000D02*
X17316180Y1778850D01*
X17312630Y1782230D01*
X17309570Y1787310D01*
X17307540Y1793240D01*
X17306520Y1800010D01*
Y1806790D01*
X17307540Y1813560D01*
X17309570Y1819490D01*
X17312630Y1824570D01*
X17316180Y1827950D01*
X17320250Y1828800D01*
X17324320Y1827950D01*
X17327870Y1824570D01*
X17330930Y1819490D01*
X17332960Y1813560D01*
X17333980Y1806790D01*
Y1800010D01*
X17332960Y1793240D01*
X17330930Y1787310D01*
X17327870Y1782230D01*
X17324320Y1778850D01*
X17320250Y1778000D01*
G01X17343080Y1828800D02*
Y1778000D01*
X17363420D01*
G01X17409080Y1828800D02*
Y1778000D01*
X17429420D01*
G01X17452250Y1828800D02*
Y1778000D01*
G01X17445130Y1811870D02*
X17459370D01*
G01X17494400Y1828800D02*
Y1778000D01*
G01Y1785620D02*
X17492370Y1781390D01*
X17489320Y1778850D01*
X17485760Y1778000D01*
X17481690Y1779690D01*
X17478640Y1783930D01*
X17476610Y1789010D01*
X17476100Y1794930D01*
X17476610Y1800860D01*
X17478640Y1805940D01*
X17481690Y1810170D01*
X17485760Y1811870D01*
X17489320Y1811020D01*
X17491860Y1809330D01*
X17494400Y1805940D01*
G01X17518250Y1776310D02*
X17517230Y1777150D01*
Y1778850D01*
X17518250Y1779690D01*
X17519270Y1778850D01*
Y1777150D01*
X17518250Y1776310D01*
G01X16907080Y2438400D02*
X16915130Y2425700D01*
X16924770Y2417230D01*
X16936030Y2413000D01*
X16948900Y2417230D01*
X16958550Y2425700D01*
X16968200Y2438400D01*
X16971420Y2455330D01*
Y2540000D01*
G01X17033370Y2432050D02*
X17043010Y2421460D01*
X17054270Y2415120D01*
X17068750Y2413000D01*
X17083230Y2417230D01*
X17094480Y2425700D01*
X17102530Y2440510D01*
X17104130Y2457450D01*
X17100920Y2474380D01*
X17092870Y2484970D01*
X17081620Y2493430D01*
X17070360Y2495550D01*
X17059100Y2493430D01*
X17044630Y2484970D01*
X17049450Y2540000D01*
X17092870D01*
G01X18000000Y250000D02*
Y5330000D01*
G01X17542080Y1803400D02*
X17550130Y1790700D01*
X17559770Y1782230D01*
X17571030Y1778000D01*
X17583900Y1782230D01*
X17593550Y1790700D01*
X17603200Y1803400D01*
X17606420Y1820330D01*
Y1905000D01*
G01X17673190Y1830910D02*
X17684450Y1845730D01*
X17694100Y1854200D01*
X17706970Y1858430D01*
X17718230Y1854200D01*
X17726270Y1845730D01*
X17732700Y1833030D01*
X17734310Y1818220D01*
X17732700Y1805510D01*
X17726270Y1792810D01*
X17716620Y1782230D01*
X17705360Y1778000D01*
X17692490Y1782230D01*
X17681230Y1794930D01*
X17674800Y1813980D01*
X17673190Y1835150D01*
X17676410Y1862660D01*
X17681230Y1877490D01*
X17689270Y1892300D01*
X17700530Y1902880D01*
X17711790Y1905000D01*
X17723050Y1900770D01*
X17731090Y1890180D01*
G01X17600000Y5017500D02*
X18000000Y5080000D01*
X17600000Y5142500D01*
Y5017500D01*
M02*
