G04 ================== begin FILE IDENTIFICATION RECORD ==================*
G04 Layout Name:  C:/Users/6gioc/OneDrive/AAST/CIRCUIT/SCHM_N/allegro/AAST_BOARD V1.brd*
G04 Film Name:    TOP*
G04 File Format:  Gerber RS274X*
G04 File Origin:  Cadence Allegro 17.2-S038*
G04 Origin Date:  Thu Nov 30 16:01:58 2023*
G04 *
G04 Layer:  BOARD GEOMETRY/OUTLINE*
G04 Layer:  ETCH/TOP*
G04 Layer:  PIN/TOP*
G04 Layer:  VIA CLASS/TOP*
G04 *
G04 Offset:    (0.0000 0.0000)*
G04 Mirror:    No*
G04 Mode:      Positive*
G04 Rotation:  0*
G04 FullContactRelief:  No*
G04 UndefLineWidth:     0.2000*
G04 ================== end FILE IDENTIFICATION RECORD ====================*
%FSLAX25Y25*MOMM*%
%IR0*IPPOS*OFA0.00000B0.00000*MIA0B0*SFA1.00000B1.00000*%
%ADD10C,.635*%
%ADD16C,.6096*%
%ADD18O,1.524X1.016*%
%ADD17R,1.524X1.016*%
%ADD14C,1.5001*%
%ADD12C,1.524*%
%ADD11C,1.651*%
%ADD15R,1.5001X1.5001*%
%ADD13R,1.524X1.524*%
%ADD19C,.3*%
%ADD20C,.5*%
%ADD21C,.2*%
%ADD22C,2.0006*%
%ADD25C,2.0244*%
%ADD24C,2.1514*%
%ADD23R,5.0804X5.0804*%
G75*
%LPD*%
G75*
G36*
G01X12728130Y3989990D02*
X15500000D01*
G02X17989990Y1500000I0J-2489990D01*
G01Y10010D01*
X10010D01*
Y1500000D01*
G02X2500000Y3989990I2489990J0D01*
G01X2892870D01*
G02X2900050Y3972650I-6J-10159D01*
G01X2777420Y3850020D01*
X1888420D01*
X1420480Y3382080D01*
Y2422580D01*
X1967280Y1875780D01*
X1979970D01*
G02X1982460Y1866270I4J-5080D01*
G03X2132930Y1785710I49542J-88269D01*
G02X2150240Y1793660I10129J766D01*
G01X2459920Y1483980D01*
X2701030D01*
G03Y1564020I92970J40020D01*
G01X2493080D01*
X2103720Y1953380D01*
G02X2103710Y1960560I3589J3595D01*
G03X1931930Y2047210I-71709J71438D01*
G02X1914700Y2041560I-10043J1530D01*
G01X1500520Y2455740D01*
Y3348920D01*
X1921580Y3769980D01*
X2736360D01*
G02X2743540Y3752640I-6J-10159D01*
G01X2499980Y3509080D01*
Y3318580D01*
X2471360Y3289960D01*
G02X2454020Y3297140I-7181J7186D01*
G01Y3754020D01*
X1945980D01*
Y3245980D01*
X2402860D01*
G02X2410040Y3228640I-6J-10159D01*
G01X2076620Y2895220D01*
X1955800D01*
G03X1930780Y2870200I0J-25020D01*
G01Y2834020D01*
X1750850D01*
G03Y2753980I-99850J-40020D01*
G01X1930780D01*
Y2717800D01*
G03X1955800Y2692780I25020J0D01*
G01X2108200D01*
G03X2133220Y2717800I0J25020D01*
G01Y2838620D01*
X2239080Y2944480D01*
X3348920D01*
X3454780Y2838620D01*
Y2717800D01*
G03X3479800Y2692780I25020J0D01*
G01X3632200D01*
G03X3657220Y2717800I0J25020D01*
G01Y2870200D01*
G03X3632200Y2895220I-25020J0D01*
G01X3511380D01*
X3382080Y3024520D01*
X2343640D01*
G02X2336460Y3041860I6J10159D01*
G01X2580020Y3285420D01*
Y3475920D01*
X2804060Y3699960D01*
G02X2821360Y3691880I7182J-7182D01*
G03X2925390Y3782930I99635J-8884D01*
G02X2918650Y3800270I445J10153D01*
G01X2979170Y3860780D01*
X4470830D01*
G02X4479780Y3845820I-7J-10161D01*
G03X4495480Y3754000I66821J-35827D01*
G02Y3739000I-6848J-7500D01*
G03X4483550Y3640890I51120J-55996D01*
G02X4481080Y3627030I-8448J-5645D01*
G03X4470780Y3606800I14717J-20230D01*
G01Y3505200D01*
G03X4495800Y3480180I25020J0D01*
G01X4648200D01*
G03X4673220Y3505200I0J25020D01*
G01Y3606800D01*
G03X4660440Y3628620I-25017J0D01*
G01X4659300Y3629270D01*
X4656510Y3633760D01*
X4657560Y3636840D01*
X4658040Y3637490D01*
G03X4661800Y3642980I-60614J45546D01*
G01X5063420D01*
X5190420Y3515980D01*
X6079420D01*
X6255920Y3339480D01*
X6254820Y3336450D01*
G03X6315550Y3397180I95180J-34450D01*
G01X6312520Y3396080D01*
X6112580Y3596020D01*
X5804210D01*
G02X5796510Y3612810I1J10161D01*
G03X5814850Y3642980I-81502J70203D01*
G01X6206420D01*
X6509920Y3339480D01*
X6508820Y3336450D01*
G03X6569550Y3397180I95180J-34450D01*
G01X6566520Y3396080D01*
X6239580Y3723020D01*
X5814850D01*
G03X5633490Y3612810I-99849J-40017D01*
G02X5625790Y3596020I-7701J-6629D01*
G01X5223580D01*
X5096580Y3723020D01*
X4661800D01*
G03X4648520Y3739000I-64404J-40014D01*
G02Y3754000I6848J7500D01*
G03X4664220Y3845820I-51121J55993D01*
G02X4673170Y3860780I8957J4799D01*
G01X7766620D01*
X8287920Y3339480D01*
X8286820Y3336450D01*
G03X8389710Y3201070I95179J-34452D01*
G02X8397660Y3183760I766J-10129D01*
G01X8238420Y3024520D01*
X6333420D01*
X4745920Y1437020D01*
X4398640D01*
G02X4391290Y1454190I6J10161D01*
G03X4280560Y1618040I-73293J69809D01*
G01X4167520Y1731080D01*
Y2747080D01*
X3522160Y3392430D01*
X3523240Y3395460D01*
G03X3359260Y3500710I-94240J33540D01*
G02X3342020Y3507990I-7080J7286D01*
G01Y3539420D01*
X3392430Y3589840D01*
X3395460Y3588760D01*
G03X3334760Y3649460I33540J94240D01*
G01X3335840Y3646430D01*
X3261980Y3572580D01*
Y3507990D01*
G02X3244740Y3500710I-10160J6D01*
G03Y3357290I-69740J-71710D01*
G02X3261980Y3350010I7080J-7286D01*
G01Y3348920D01*
X3706480Y2904420D01*
Y1731080D01*
X3593480Y1618080D01*
X3590450Y1619180D01*
G03X3651180Y1558450I-34450J-95180D01*
G01X3650080Y1561480D01*
X3786520Y1697920D01*
Y2937580D01*
X3412040Y3312060D01*
G02X3420120Y3329360I7182J7182D01*
G03X3462540Y3334760I8870J99638D01*
G01X3465570Y3335840D01*
X4087480Y2713920D01*
Y1697920D01*
X4223920Y1561480D01*
X4222820Y1558450D01*
G03X4244710Y1454190I95179J-34445D01*
G02X4237360Y1437020I-7356J-7009D01*
G01X3666420D01*
X3593480Y1364080D01*
X3590450Y1365180D01*
G03X3651180Y1304450I-34450J-95180D01*
G01X3650080Y1307480D01*
X3699580Y1356980D01*
X4237360D01*
G02X4244710Y1339810I-6J-10161D01*
G03X4391290I73290J-69810D01*
G02X4398640Y1356980I7356J7009D01*
G01X4779080D01*
X6366580Y2944480D01*
X8271580D01*
X8558870Y3231780D01*
X8563070D01*
X8564560Y3230290D01*
G03X8593060Y3210340I71433J71715D01*
G01X8595980Y3208970D01*
Y3202380D01*
X8291120Y2897520D01*
X6396920D01*
X4301420Y802020D01*
X3064580D01*
X2888080Y978520D01*
X2889180Y981550D01*
G03X2828450Y920820I-95180J34450D01*
G01X2831480Y921920D01*
X3031420Y721980D01*
X4334580D01*
X6430080Y2817480D01*
X8324280D01*
X8676020Y3169220D01*
Y3180860D01*
G02X8693360Y3188040I10159J-6D01*
G01X9000420Y2880980D01*
X10610360D01*
G02X10617540Y2863640I-6J-10159D01*
G01X9762420Y2008520D01*
X5698420D01*
X4761440Y1071530D01*
X4759490Y1071420D01*
G03X4817920Y1012990I3010J-55420D01*
G01X4818030Y1014940D01*
X5731580Y1928480D01*
X9795580D01*
X10691560Y2824460D01*
X12168440D01*
X12199970Y2792940D01*
X12200080Y2790990D01*
G03X12258510Y2849420I55420J3010D01*
G01X12256560Y2849530D01*
X12242460Y2863640D01*
G02X12249640Y2880980I7186J7181D01*
G01X13614780D01*
Y2844800D01*
G03X13639800Y2819780I25020J0D01*
G01X13792200D01*
G03X13817220Y2844800I0J25020D01*
G01Y2997200D01*
G03X13792200Y3022220I-25020J0D01*
G01X13639800D01*
G03X13614780Y2997200I0J-25020D01*
G01Y2961020D01*
X9033580D01*
X8730040Y3264560D01*
G03X8709290Y3371810I-94040J37438D01*
G02X8716640Y3388980I7356J7009D01*
G01X8809360D01*
G02X8816710Y3371810I-6J-10161D01*
G03X8963290I73290J-69810D01*
G02X8970640Y3388980I7356J7009D01*
G01X9063360D01*
G02X9070710Y3371810I-6J-10161D01*
G03X9217290I73290J-69810D01*
G02X9224640Y3388980I7356J7009D01*
G01X9317360D01*
G02X9324710Y3371810I-6J-10161D01*
G03X9471290I73290J-69810D01*
G02X9478640Y3388980I7356J7009D01*
G01X9571360D01*
G02X9578710Y3371810I-6J-10161D01*
G03X9725290I73290J-69810D01*
G02X9732640Y3388980I7356J7009D01*
G01X9825360D01*
G02X9832710Y3371810I-6J-10161D01*
G03X9979290I73290J-69810D01*
G02X9986640Y3388980I7356J7009D01*
G01X10079360D01*
G02X10086710Y3371810I-6J-10161D01*
G03X10233290I73290J-69810D01*
G02X10240640Y3388980I7356J7009D01*
G01X10333360D01*
G02X10340710Y3371810I-6J-10161D01*
G03X10487290I73290J-69810D01*
G02X10494640Y3388980I7356J7009D01*
G01X10587360D01*
G02X10594710Y3371810I-6J-10161D01*
G03X10741290I73290J-69810D01*
G02X10748640Y3388980I7356J7009D01*
G01X10841360D01*
G02X10848710Y3371810I-6J-10161D01*
G03X10995290I73290J-69810D01*
G02X11002640Y3388980I7356J7009D01*
G01X11095360D01*
G02X11102710Y3371810I-6J-10161D01*
G03X11249290I73290J-69810D01*
G02X11256640Y3388980I7356J7009D01*
G01X11349360D01*
G02X11356710Y3371810I-6J-10161D01*
G03X11503290I73290J-69810D01*
G02X11510640Y3388980I7356J7009D01*
G01X11603360D01*
G02X11610710Y3371810I-6J-10161D01*
G03X11757290I73290J-69810D01*
G02X11764640Y3388980I7356J7009D01*
G01X11857360D01*
G02X11864710Y3371810I-6J-10161D01*
G03X11843960Y3264560I73290J-69812D01*
G01X11667420Y3088020D01*
X11023950D01*
G03Y3007980I-38450J-40020D01*
G01X11700580D01*
X11900520Y3207920D01*
X11903550Y3206820D01*
G03X12011290Y3371810I34448J95178D01*
G02X12018640Y3388980I7356J7009D01*
G01X12048420D01*
X12097920Y3339480D01*
X12096820Y3336450D01*
G03X12157550Y3397180I95180J-34450D01*
G01X12154520Y3396080D01*
X12081580Y3469020D01*
X8555920D01*
X8479780Y3392880D01*
Y3370760D01*
G02X8461630Y3364490I-10159J3D01*
G03X8344560Y3396040I-79627J-62490D01*
G01X7842160Y3898440D01*
G02X7849340Y3915780I7186J7181D01*
G01X12664620D01*
X12786980Y3793420D01*
Y3763640D01*
G02X12769810Y3756290I-10161J6D01*
G03X12665550Y3778180I-69815J-73289D01*
G01X12662520Y3777080D01*
X12589580Y3850020D01*
X11540420D01*
X11472300Y3781900D01*
G03X11348490Y3612810I-42296J-98903D01*
G02X11340790Y3596020I-7701J-6629D01*
G01X10503210D01*
G02X10495510Y3612810I1J10161D01*
G03X10332490I-81510J70190D01*
G02X10324790Y3596020I-7701J-6629D01*
G01X10049580D01*
X10004940Y3640650D01*
X10006150Y3643750D01*
G03X9945250Y3582850I-100150J39250D01*
G01X9948350Y3584060D01*
X10016420Y3515980D01*
X11954580D01*
X12027520Y3588920D01*
X12030550Y3587820D01*
G03X12138290Y3752810I34448J95178D01*
G02X12145640Y3769980I7356J7009D01*
G01X12238360D01*
G02X12245710Y3752810I-6J-10161D01*
G03X12353450Y3587820I73292J-69812D01*
G01X12356480Y3588920D01*
X12605920Y3339480D01*
X12604820Y3336450D01*
G03X12665550Y3397180I95180J-34450D01*
G01X12662520Y3396080D01*
X12413080Y3645520D01*
X12414180Y3648550D01*
G03X12392290Y3752810I-95179J34445D01*
G02X12399640Y3769980I7356J7009D01*
G01X12556420D01*
X12605920Y3720480D01*
X12604820Y3717450D01*
G03X12779560Y3620430I95178J-34448D01*
G02X12794730Y3621330I7984J-6283D01*
G01X12963580Y3452480D01*
X14478500D01*
X14487630Y3461610D01*
G02X14504980Y3454430I7189J-7180D01*
G01Y3385570D01*
X14056980Y2937580D01*
Y2683580D01*
X13826420Y2453020D01*
X13808970D01*
G03Y2372980I-92970J-40020D01*
G01X13859580D01*
X14137020Y2650420D01*
Y2904420D01*
X14561570Y3328980D01*
X14680010D01*
G03X14705020Y3353990I-5J25015D01*
G01Y3503990D01*
X14736590D01*
X14822430Y3589840D01*
X14825460Y3588760D01*
G03X14764760Y3649460I33540J94240D01*
G01X14765840Y3646430D01*
X14703430Y3584030D01*
X14670220D01*
G02X14664210Y3602380I5J10161D01*
G03X14545790I-59210J80620D01*
G02X14539780Y3584030I-6015J-8189D01*
G01X14496850D01*
X14445340Y3532520D01*
X12996740D01*
X12963560Y3565700D01*
G02X12969210Y3582930I7180J7187D01*
G03X13046970Y3642980I-15212J100069D01*
G01X13108150D01*
G03X13306900Y3725300I99850J40014D01*
G01X13415080Y3833480D01*
X15096420D01*
X15129960Y3799940D01*
G02X15121880Y3782640I-7182J-7182D01*
G03X15018760Y3649460I-8880J-99637D01*
G01X15019840Y3646430D01*
X14945980Y3572580D01*
Y3507990D01*
G02X14928740Y3500710I-10160J6D01*
G03X14892950Y3334910I-69740J-71709D01*
G02X14903580Y3318170I3444J-9558D01*
G01X14755480Y3170070D01*
Y1731080D01*
X14588420Y1564020D01*
X14558640D01*
G02X14551290Y1581190I6J10161D01*
G03X14404710I-73290J69810D01*
G02X14397360Y1564020I-7356J-7009D01*
G01X13975780D01*
X13848780Y1691020D01*
X13808970D01*
G03X13642710Y1581190I-92972J-40016D01*
G02X13635360Y1564020I-7356J-7009D01*
G01X13097580D01*
X11930030Y2731560D01*
X11929920Y2733510D01*
G03X11871490Y2675080I-55420J-3010D01*
G01X11873440Y2674970D01*
X13064420Y1483980D01*
X13635360D01*
G02X13642710Y1466810I-6J-10161D01*
G03X13816930Y1404710I73294J-69811D01*
G02X13834240Y1412660I10129J766D01*
G01X13889920Y1356980D01*
X14385030D01*
G03X14551290Y1466810I92972J40016D01*
G02X14558640Y1483980I7356J7009D01*
G01X14621580D01*
X14835520Y1697920D01*
Y3136910D01*
X15026020Y3327410D01*
Y3350010D01*
G02X15043260Y3357290I10160J-6D01*
G03X15182740I69740J71710D01*
G02X15199980Y3350010I7080J-7286D01*
G01Y3022220D01*
X15163800D01*
G03X15138780Y2997200I0J-25020D01*
G01Y2844800D01*
G03X15163800Y2819780I25020J0D01*
G01X15316200D01*
G03X15341220Y2844800I0J25020D01*
G01Y2997200D01*
G03X15316200Y3022220I-25020J0D01*
G01X15280020D01*
Y3763080D01*
X15129580Y3913520D01*
X13381920D01*
X13250340Y3781940D01*
X13247240Y3783150D01*
G03X13108150Y3723020I-39245J-100154D01*
G01X13046970D01*
G03X12884190Y3756290I-92970J-40022D01*
G02X12867020Y3763640I-7009J7356D01*
G01Y3826580D01*
X12720950Y3972650D01*
G02X12728130Y3989990I7186J7181D01*
G37*
%LPC*%
G75*
G36*
G01X5698420Y2580020D02*
X6269920Y3151520D01*
X8089550D01*
G02Y3071480I38450J-40020D01*
G01X6303080D01*
X5731580Y2499980D01*
X4410970D01*
G02Y2580020I-92970J40020D01*
G01X5698420D01*
G37*
G36*
G01X15921350Y2326020D02*
G03X15928710Y2343190I4J10161D01*
G02X16075290I73290J69810D01*
G03X16082650Y2326020I7356J-7009D01*
G01X16653580D01*
X16720570Y2259020D01*
X16839000D01*
G02X16864020Y2234000I5J-25015D01*
G01Y2084000D01*
G02X16839000Y2058980I-25015J-5D01*
G01X16689000D01*
G02X16663980Y2084000I-5J25015D01*
G01Y2202430D01*
X16620420Y2245980D01*
X16082650D01*
G03X16075290Y2228810I-4J-10161D01*
G02X15928710I-73290J-69810D01*
G03X15921350Y2245980I-7356J7009D01*
G01X15604420D01*
X15477420Y2372980D01*
X15332970D01*
G02Y2453020I-92970J40020D01*
G01X15510580D01*
X15637580Y2326020D01*
X15921350D01*
G37*
G36*
G01X17128420Y1610980D02*
X16094970D01*
G02Y1691020I-92970J40020D01*
G01X17161580D01*
X17355570Y1497020D01*
X17474000D01*
G02X17499020Y1472000I5J-25015D01*
G01Y1353570D01*
X17616430Y1236160D01*
X17619460Y1237240D01*
G02X17558760Y1176540I33540J-94240D01*
G01X17559840Y1179570D01*
X17442430Y1296980D01*
X17324000D01*
G02X17298980Y1322000I-5J25015D01*
G01Y1440430D01*
X17128420Y1610980D01*
G37*
G36*
G01X12810420Y594980D02*
X12483480Y921920D01*
X12480450Y920820D01*
G02X12541180Y981550I-34450J95180D01*
G01X12540080Y978520D01*
X12843580Y675020D01*
X13489150D01*
G02X13670510Y564810I99849J-40017D01*
G03X13678210Y548020I7701J-6629D01*
G01X14515790D01*
G03X14523490Y564810I-1J10161D01*
G02X14686510I81510J70190D01*
G03X14694210Y548020I7701J-6629D01*
G01X14875580D01*
X15070660Y352940D01*
X15073750Y354150D01*
G02X15012850Y293250I39250J-100150D01*
G01X15014060Y296340D01*
X14842420Y467980D01*
X12664680D01*
G02Y548020I-91680J40020D01*
G01X13499790D01*
G03X13507490Y564810I-1J10161D01*
G02X13489150Y594980I81502J70203D01*
G01X12810420D01*
G37*
G36*
G01X12664680Y213980D02*
G02Y294020I-91680J40020D01*
G01X13489150D01*
G02Y213980I99850J-40020D01*
G01X12664680D01*
G37*
G36*
G01X2820980Y3354000D02*
Y3504000D01*
G02X2846000Y3529020I25015J5D01*
G01X2996000D01*
G02X3021020Y3504000I5J-25015D01*
G01Y3354000D01*
G02X2996000Y3328980I-25015J-5D01*
G01X2846000D01*
G02X2820980Y3354000I-5J25015D01*
G37*
G36*
G01X2947980Y433000D02*
Y583000D01*
G02X2973000Y608020I25015J5D01*
G01X3123000D01*
G02X3148020Y583000I5J-25015D01*
G01Y433000D01*
G02X3123000Y407980I-25015J-5D01*
G01X2973000D01*
G02X2947980Y433000I-5J25015D01*
G37*
G36*
G01X4978780Y939800D02*
Y1092200D01*
G02X5003800Y1117220I25020J0D01*
G01X5156200D01*
G02X5181220Y1092200I0J-25020D01*
G01Y939800D01*
G02X5156200Y914780I-25020J0D01*
G01X5003800D01*
G02X4978780Y939800I0J25020D01*
G37*
G36*
G01X5360980Y179000D02*
Y329000D01*
G02X5386000Y354020I25015J5D01*
G01X5536000D01*
G02X5561020Y329000I5J-25015D01*
G01Y179000D01*
G02X5536000Y153980I-25015J-5D01*
G01X5386000D01*
G02X5360980Y179000I-5J25015D01*
G37*
G36*
G01X9571920Y1310020D02*
X10929980Y2668070D01*
X10930080Y2670010D01*
G02X10988510Y2611580I55420J-3010D01*
G01X10986570Y2611480D01*
X9638960Y1263860D01*
G03X9646140Y1246520I7186J-7181D01*
G01X13161080D01*
X13478580Y929020D01*
X15731420D01*
X15907920Y1105520D01*
X15906820Y1108550D01*
G02X15967550Y1047820I95180J34450D01*
G01X15964520Y1048920D01*
X15764580Y848980D01*
X13445420D01*
X13127920Y1166480D01*
X8843080D01*
X8730080Y1053480D01*
X8731180Y1050450D01*
G02Y981550I-95180J-34450D01*
G01X8730080Y978520D01*
X8843080Y865520D01*
X8970080D01*
X9101690Y733900D01*
G02X9225510Y564810I42307J-98900D01*
G03X9233210Y548020I7701J-6629D01*
G01X9562790D01*
G03X9570490Y564810I-1J10161D01*
G02X9733510I81510J70190D01*
G03X9741210Y548020I7701J-6629D01*
G01X10578790D01*
G03X10586490Y564810I-1J10161D01*
G02X10767850Y675020I81511J70193D01*
G01X11272130D01*
X11327130Y730020D01*
X11595420D01*
X11843920Y978520D01*
X11842820Y981550D01*
G02X11978020Y923030I95177J34451D01*
G01Y905580D01*
X12282430Y601160D01*
X12285460Y602240D01*
G02X12224760Y541540I33540J-94240D01*
G01X12225840Y544570D01*
X11897980Y872420D01*
Y894860D01*
G03X11880640Y902040I-10159J-6D01*
G01X11670960Y692360D01*
G03X11678140Y675020I7186J-7181D01*
G01X11954580D01*
X12028430Y601160D01*
X12031460Y602240D01*
G02X11971880Y544530I33542J-94239D01*
G01X11921420Y594980D01*
X11890000D01*
G03X11882710Y577740I-4J-10160D01*
G02X11739290I-71710J-69740D01*
G03X11732000Y594980I-7286J7080D01*
G01X11636000D01*
G03X11628710Y577740I-4J-10160D01*
G02Y438260I-71710J-69740D01*
G03X11636000Y421020I7286J-7080D01*
G01X11700580D01*
X11774430Y347160D01*
X11777460Y348240D01*
G02X11716760Y287540I33540J-94240D01*
G01X11717840Y290570D01*
X11667420Y340980D01*
X11656220D01*
Y335310D01*
X11656360Y334740D01*
G02X11657020Y329000I-24359J-5709D01*
G01Y179000D01*
G02X11632000Y153980I-25015J-5D01*
G01X11482000D01*
G02X11456980Y179000I-5J25015D01*
G01Y329000D01*
G02X11457010Y330300I25018J73D01*
G03X11446860Y340980I-10147J520D01*
G01X10757210D01*
G03X10749510Y324190I1J-10161D01*
G02X10768150Y214750I-81511J-70191D01*
G01X10766940Y211660D01*
X10875080Y103520D01*
X11857920D01*
X11971840Y217430D01*
X11970760Y220460D01*
G02X12031460Y159760I94240J33540D01*
G01X12028430Y160840D01*
X11891080Y23480D01*
X10841920D01*
X10710340Y155060D01*
X10707250Y153850D01*
G02X10586490Y324190I-39246J100153D01*
G03X10578790Y340980I-7701J6629D01*
G01X9741210D01*
G03X9733510Y324190I1J-10161D01*
G02X9570490I-81510J-70190D01*
G03X9562790Y340980I-7701J6629D01*
G01X9287580D01*
X9242940Y296340D01*
X9244150Y293250D01*
G02X9186310Y352900I-100154J-39247D01*
G01X9254420Y421020D01*
X11478000D01*
G03X11485290Y438260I4J10160D01*
G02Y577740I71710J69740D01*
G03X11478000Y594980I-7286J7080D01*
G01X11383080D01*
X11256080Y467980D01*
X8525580D01*
X8462080Y404480D01*
X7065080D01*
X6956940Y296340D01*
X6958150Y293250D01*
G02X6750980Y243140I-100150J-39255D01*
G03X6733690Y249300I-10107J-1024D01*
G01X6571370Y86980D01*
X6333420D01*
X6259570Y160840D01*
X6256540Y159760D01*
G02X6159700Y331450I-33537J94240D01*
G03X6153270Y349480I-6428J7869D01*
G01X6121080D01*
X6062160Y290570D01*
X6063240Y287540D01*
G02X5909790Y334620I-94238J-33541D01*
G03X5903770Y352970I-6015J8189D01*
G01X5870570D01*
X5808160Y290570D01*
X5809240Y287540D01*
G02X5748540Y348240I-94240J-33540D01*
G01X5751570Y347160D01*
X5837410Y433010D01*
X5879900D01*
G03X5888120Y449150I3J10162D01*
G02X5875880Y544530I80881J58855D01*
G01X5825420Y594980D01*
X5794000D01*
G03X5786710Y577740I-4J-10160D01*
G02X5643290I-71710J-69740D01*
G03X5636000Y594980I-7286J7080D01*
G01X5540000D01*
G03X5532710Y577740I-4J-10160D01*
G02X5389290I-71710J-69740D01*
G03X5382000Y594980I-7286J7080D01*
G01X5096580D01*
X5051940Y550340D01*
X5053150Y547250D01*
G02X4995310Y606900I-100154J-39247D01*
G01X5063420Y675020D01*
X5858580D01*
X5911640Y621960D01*
G03X5928980Y629140I7181J7186D01*
G01Y639600D01*
X6091400Y802020D01*
X6333420D01*
X6509920Y978520D01*
X6508820Y981550D01*
G02X6569550Y920820I95180J34450D01*
G01X6566520Y921920D01*
X6400460Y755860D01*
G03X6407640Y738520I7186J-7181D01*
G01X6523920D01*
X6587420Y802020D01*
X7031920D01*
X7127660Y897760D01*
G03X7119710Y915070I-7184J7181D01*
G02X7208960Y986930I-7709J100929D01*
G03X7218690Y973850I9729J-2922D01*
G01X7267250D01*
X7271920Y978520D01*
X7270820Y981550D01*
G02X7331550Y920820I95180J34450D01*
G01X7328520Y921920D01*
X7300410Y893810D01*
X7236910D01*
X7225960Y882860D01*
G03X7233140Y865520I7186J-7181D01*
G01X7412920D01*
X7525920Y978520D01*
X7524820Y981550D01*
G02X7585550Y920820I95180J34450D01*
G01X7582520Y921920D01*
X7446080Y785480D01*
X7255580D01*
X7225960Y755860D01*
G03X7233140Y738520I7186J-7181D01*
G01X7539920D01*
X7779920Y978520D01*
X7778820Y981550D01*
G02X7839550Y920820I95180J34450D01*
G01X7836520Y921920D01*
X7573080Y658480D01*
X7241290D01*
X7084670Y501860D01*
G03X7091850Y484520I7186J-7181D01*
G01X8428920D01*
X8492420Y548020D01*
X9054790D01*
G03X9062490Y564810I-1J10161D01*
G02X9043850Y674250I81511J70191D01*
G01X9045060Y677340D01*
X8936920Y785480D01*
X8809920D01*
X8673480Y921920D01*
X8670450Y920820D01*
G02Y1111180I-34450J95180D01*
G01X8673480Y1110080D01*
X8776040Y1212640D01*
G03X8768860Y1229980I-7186J7181D01*
G01X5816950D01*
G02Y1310020I-38450J40020D01*
G01X9571920D01*
G37*
G54D22*
X17653000Y1397000D03*
X17018000Y2159000D03*
X17399000Y1143000D03*
X12319000Y254000D03*
X3175000Y3683000D03*
X3302000Y508000D03*
G54D25*
X16002000Y2667000D03*
Y2921000D03*
Y1905000D03*
Y1397000D03*
X15240000Y2667000D03*
Y2159000D03*
Y1905000D03*
Y1651000D03*
Y1397000D03*
Y1143000D03*
X14478000Y2413000D03*
Y2667000D03*
Y2921000D03*
Y1905000D03*
Y2159000D03*
Y1143000D03*
X13716000Y2667000D03*
Y2159000D03*
Y1905000D03*
Y1143000D03*
X12954000Y3302000D03*
X12446000D03*
X12700000Y1016000D03*
X12954000D03*
X11684000D03*
X12192000D03*
X10922000D03*
X11176000D03*
X11430000D03*
X10160000D03*
X10414000D03*
X10668000D03*
X9398000D03*
X9652000D03*
X9906000D03*
X9144000D03*
X8890000D03*
X8128000Y3302000D03*
X7874000D03*
X8128000Y1016000D03*
X8382000D03*
X7620000Y3302000D03*
X7366000D03*
X7112000D03*
X6858000D03*
X6350000Y1016000D03*
X6858000D03*
X6096000Y3302000D03*
X5842000D03*
X5588000D03*
Y1016000D03*
X5842000D03*
X6096000D03*
X5334000Y3302000D03*
X5080000D03*
X5334000Y1016000D03*
X4318000Y2794000D03*
Y1778000D03*
Y2032000D03*
Y2286000D03*
Y1016000D03*
X3556000Y2540000D03*
Y2286000D03*
Y2032000D03*
Y1778000D03*
Y1016000D03*
X2794000Y2540000D03*
Y2794000D03*
Y1778000D03*
Y2032000D03*
Y2286000D03*
Y1270000D03*
X2032000Y2540000D03*
Y2286000D03*
Y1524000D03*
Y1270000D03*
Y1016000D03*
X889000Y1524000D03*
X635000D03*
G54D24*
X16129000Y254000D03*
X14605000D03*
X14224000Y3683000D03*
X8890000D03*
X8128000Y254000D03*
X7874000D03*
Y635000D03*
X8128000D03*
X6731000Y3683000D03*
X4699000Y2794000D03*
Y1778000D03*
X3937000Y508000D03*
X2413000D03*
X1651000Y1016000D03*
X1397000Y508000D03*
X635000Y2794000D03*
Y1016000D03*
G54D23*
X17500000Y500000D03*
X15800000Y3500000D03*
X500000Y500000D03*
%LPD*%
G75*
G54D10*
X500000Y500000D03*
X2200000Y3500000D03*
X15800000D03*
X17500000Y500000D03*
G54D20*
G01X1651000Y903350D02*
Y1016000D01*
G01D02*
Y1128650D01*
G01X1538350Y1016000D02*
X1651000D01*
G01D02*
X1763650D01*
G01X2032000Y909700D02*
Y1016000D01*
G01D02*
Y1122300D01*
G01X1925700Y1016000D02*
X2032000D01*
G01D02*
X2138300D01*
G01X2032000Y2433700D02*
Y2540000D01*
G01D02*
Y2646300D01*
G01X1925700Y2540000D02*
X2032000D01*
G01D02*
X2138300D01*
G01X2942890Y508000D02*
X3048000D01*
G01X2794000Y1163700D02*
Y1270000D01*
G01D02*
Y1376300D01*
G01X2687700Y1270000D02*
X2794000D01*
G01D02*
X2900300D01*
G01X2794000Y2687700D02*
Y2794000D01*
G01D02*
Y2900300D01*
G01X2687700Y2794000D02*
X2794000D01*
G01D02*
X2900300D01*
G01X3048000Y402890D02*
Y508000D01*
G01D02*
Y613110D01*
G01Y508000D02*
X3153110D01*
G01X3556000Y909700D02*
Y1016000D01*
G01D02*
Y1122300D01*
G01X3449700Y1016000D02*
X3556000D01*
G01D02*
X3662300D01*
G01X4318000Y2687700D02*
Y2794000D01*
G01D02*
Y2900300D01*
G01X4211700Y2794000D02*
X4318000D01*
G01D02*
X4424300D01*
G01X4465700Y3556000D02*
X4572000D01*
G01X5080000Y3195700D02*
Y3302000D01*
G01D02*
Y3408300D01*
G01X4973700Y3302000D02*
X5080000D01*
G01D02*
X5186300D01*
G01X4572000Y3475100D02*
Y3556000D01*
G01D02*
X4678300D01*
G01X5461000Y148890D02*
Y254000D01*
G01D02*
Y359110D01*
G01X5355890Y254000D02*
X5461000D01*
G01D02*
X5566110D01*
G01X5588000Y3195700D02*
Y3302000D01*
G01D02*
Y3408300D01*
G01X5481700Y3302000D02*
X5588000D01*
G01D02*
X5694300D01*
G01X6731000Y3570350D02*
Y3683000D01*
G01D02*
Y3795650D01*
G01X6618350Y3683000D02*
X6731000D01*
G01D02*
X6843650D01*
G01X8128000Y3195700D02*
Y3302000D01*
G01D02*
Y3408300D01*
G01X8021700Y3302000D02*
X8128000D01*
G01D02*
X8234300D01*
G01X10160000Y909700D02*
Y1016000D01*
G01D02*
Y1122300D01*
G01X10053700Y1016000D02*
X10160000D01*
G01D02*
X10266300D01*
G01X11557000Y148890D02*
Y254000D01*
G01X11451890D02*
X11557000D01*
G01D02*
X11662110D01*
G01X13609700Y1143000D02*
X13716000D01*
G01Y1036700D02*
Y1143000D01*
G01D02*
Y1249300D01*
G01Y1143000D02*
X13822300D01*
G01X14371700Y2921000D02*
X14478000D01*
G01X15133700Y1143000D02*
X15240000D01*
G01X15133700Y2667000D02*
X15240000D01*
G01X14478000Y2814700D02*
Y2921000D01*
G01D02*
Y3027300D01*
G01Y2921000D02*
X14584300D01*
G01X15895700Y1397000D02*
X16002000D01*
G01X15240000Y1036700D02*
Y1143000D01*
G01D02*
Y1249300D01*
G01Y1143000D02*
X15346300D01*
G01X15895700Y2921000D02*
X16002000D01*
G01X15240000Y2560700D02*
Y2667000D01*
G01D02*
Y2773300D01*
G01Y2667000D02*
X15346300D01*
G01X16002000Y1290700D02*
Y1397000D01*
G01D02*
Y1503300D01*
G01Y1397000D02*
X16108300D01*
G01X16002000Y2814700D02*
Y2921000D01*
G01D02*
Y3027300D01*
G01Y2921000D02*
X16108300D01*
G54D11*
X635000Y1016000D03*
Y2794000D03*
X1397000Y508000D03*
X1651000Y1016000D03*
Y2794000D03*
X2413000Y508000D03*
X3937000D03*
X4953000D03*
X4699000Y1778000D03*
Y2794000D03*
X5715000Y3683000D03*
X6858000Y635000D03*
Y254000D03*
X6731000Y3683000D03*
X8128000Y635000D03*
X7874000D03*
Y254000D03*
X8128000D03*
X9144000Y635000D03*
Y254000D03*
X8890000Y3683000D03*
X9652000Y254000D03*
Y635000D03*
X9906000Y3683000D03*
X10668000Y254000D03*
Y635000D03*
X10414000Y3683000D03*
X11430000D03*
X13589000Y635000D03*
Y254000D03*
X13208000Y3683000D03*
X14224000D03*
X14605000Y635000D03*
Y254000D03*
X15113000D03*
X16129000D03*
G54D21*
G01X0Y1500000D02*
Y0D01*
X18000000D01*
Y1500000D01*
G03X15500000Y4000000I-2500000J0D01*
G01X2500000D01*
G03X0Y1500000I0J-2500000D01*
G54D12*
X635000Y1524000D03*
X889000D03*
X2032000Y1016000D03*
Y1270000D03*
Y1524000D03*
Y1778000D03*
Y2032000D03*
Y2286000D03*
Y2540000D03*
X2794000Y1524000D03*
Y1270000D03*
Y1016000D03*
Y2286000D03*
Y2032000D03*
Y1778000D03*
Y2794000D03*
Y2540000D03*
X3556000Y1016000D03*
Y1270000D03*
Y1524000D03*
Y1778000D03*
Y2032000D03*
Y2286000D03*
Y2540000D03*
X4318000Y1524000D03*
Y1270000D03*
Y1016000D03*
Y2286000D03*
Y2032000D03*
Y1778000D03*
Y2794000D03*
Y2540000D03*
X5334000Y1016000D03*
X5080000Y3302000D03*
X5334000D03*
X6096000Y1016000D03*
X5842000D03*
X5588000D03*
Y3302000D03*
X5842000D03*
X6096000D03*
X6858000Y1016000D03*
X6604000D03*
X6350000D03*
Y3302000D03*
X6604000D03*
X6858000D03*
X7620000Y1016000D03*
X7366000D03*
X7112000D03*
Y3302000D03*
X7366000D03*
X7620000D03*
X8382000Y1016000D03*
X8128000D03*
X7874000D03*
Y3302000D03*
X8128000D03*
X8382000D03*
X8890000Y1016000D03*
X8636000D03*
X9144000D03*
X8636000Y3302000D03*
X8890000D03*
X9144000D03*
X9906000Y1016000D03*
X9652000D03*
X9398000D03*
Y3302000D03*
X9652000D03*
X9906000D03*
X10668000Y1016000D03*
X10414000D03*
X10160000D03*
Y3302000D03*
X10414000D03*
X10668000D03*
X11430000Y1016000D03*
X11176000D03*
X10922000D03*
Y3302000D03*
X11176000D03*
X11430000D03*
X12192000Y1016000D03*
X11938000D03*
X11684000D03*
X12065000Y3683000D03*
X11684000Y3302000D03*
X11938000D03*
X12192000D03*
X12954000Y1016000D03*
X12700000D03*
X12446000D03*
X12319000Y3683000D03*
X12954000D03*
X12700000D03*
X12446000Y3302000D03*
X12700000D03*
X12954000D03*
X13716000Y1143000D03*
Y1397000D03*
Y1651000D03*
Y1905000D03*
Y2159000D03*
Y2413000D03*
Y2667000D03*
X14478000Y1397000D03*
Y1143000D03*
Y2159000D03*
Y1905000D03*
Y1651000D03*
Y2921000D03*
Y2667000D03*
Y2413000D03*
X15240000Y1143000D03*
Y1397000D03*
Y1651000D03*
Y1905000D03*
Y2159000D03*
Y2413000D03*
Y2667000D03*
X16002000Y1397000D03*
Y1143000D03*
Y2159000D03*
Y1905000D03*
Y1651000D03*
Y2921000D03*
Y2667000D03*
Y2413000D03*
G54D13*
X2032000Y2794000D03*
X3556000D03*
X5080000Y1016000D03*
X13716000Y2921000D03*
X15240000D03*
G54D14*
X2921000Y3683000D03*
X3302000Y508000D03*
X3175000Y3683000D03*
X3429000D03*
Y3429000D03*
X3175000D03*
X5461000Y508000D03*
X5715000D03*
X5969000D03*
Y254000D03*
X5715000D03*
X6223000Y508000D03*
X6477000D03*
Y254000D03*
X6223000D03*
X11557000Y508000D03*
X11811000D03*
X12065000D03*
Y254000D03*
X11811000D03*
X12319000Y508000D03*
X12573000D03*
Y254000D03*
X12319000D03*
X14605000Y3683000D03*
X14859000D03*
X15113000D03*
Y3429000D03*
X14859000D03*
X17399000Y1143000D03*
X17018000Y2159000D03*
X17653000Y1397000D03*
Y1143000D03*
G54D15*
X2921000Y3429000D03*
X3048000Y508000D03*
X5461000Y254000D03*
X11557000D03*
X14605000Y3429000D03*
X17399000Y1397000D03*
X16764000Y2159000D03*
G54D16*
X4762500Y1016000D03*
X5778500Y1270000D03*
X8128000Y3111500D03*
X10985500Y2667000D03*
Y3048000D03*
X11874500Y2730500D03*
X12255500Y2794000D03*
G54D17*
X4572000Y3556000D03*
G54D18*
Y3683000D03*
Y3810000D03*
G54D19*
G01X14859000Y3683000D02*
X14720010Y3544010D01*
X14513430D01*
X14461920Y3492500D01*
X12980160D01*
X12827000Y3645660D01*
Y3810000D01*
X12681200Y3955800D01*
X2939800D01*
X2794000Y3810000D01*
X1905000D01*
X1460500Y3365500D01*
Y2439160D01*
X1983860Y1915800D01*
X2084700D01*
X2476500Y1524000D01*
X2794000D01*
G01X1651000Y2794000D02*
X2032000D01*
G01X2222500Y2984500D02*
X2032000Y2794000D01*
G01X8636000Y3302000D02*
Y3185800D01*
X8307700Y2857500D01*
X6413500D01*
X4318000Y762000D01*
X3048000D01*
X2794000Y1016000D01*
G01X3556000Y2794000D02*
X3365500Y2984500D01*
X2222500D01*
G01X8382000Y3302000D02*
X7783200Y3900800D01*
X2962590D01*
X2816790Y3755000D01*
X2802500D01*
X2540000Y3492500D01*
Y3302000D01*
X2222500Y2984500D01*
G01X3556000Y1270000D02*
X3683000Y1397000D01*
X4762500D01*
X6350000Y2984500D01*
X8255000D01*
X8519800Y3249300D01*
Y3376300D01*
X8572500Y3429000D01*
X12065000D01*
X12192000Y3302000D01*
G01X3556000Y1524000D02*
X3746500Y1714500D01*
Y2921000D01*
X3302000Y3365500D01*
Y3556000D01*
X3429000Y3683000D01*
G01Y3429000D02*
X4127500Y2730500D01*
Y1714500D01*
X4318000Y1524000D01*
G01X8128000Y3111500D02*
X6286500D01*
X5715000Y2540000D01*
X4318000D01*
G01X5969000Y508000D02*
X5842000Y635000D01*
X5080000D01*
X4953000Y508000D01*
G01X4762500Y1016000D02*
X5715000Y1968500D01*
X9779000D01*
X10674980Y2864480D01*
X12185020D01*
X12255500Y2794000D01*
G01X6350000Y3302000D02*
X6096000Y3556000D01*
X5207000D01*
X5080000Y3683000D01*
X4572000D01*
G01X6604000Y1016000D02*
X6350000Y762000D01*
X6107980D01*
X5969000Y623020D01*
Y508000D01*
G01X7366000Y1016000D02*
X7283830Y933830D01*
X7220330D01*
X7048500Y762000D01*
X6604000D01*
X6540500Y698500D01*
X6250850D01*
X6084010Y531660D01*
Y460360D01*
X6016640Y392990D01*
X5853990D01*
X5715000Y254000D01*
G01X5969000D02*
X6104500Y389500D01*
X6739500D01*
X6794500Y444500D01*
X6858000D01*
X7239000Y825500D01*
X7429500D01*
X7620000Y1016000D01*
G01X10985500Y2667000D02*
X9588500Y1270000D01*
X5778500D01*
G01X5715000Y3683000D02*
X6223000D01*
X6604000Y3302000D01*
G01X6858000Y635000D02*
X6350000D01*
X6223000Y508000D01*
G01X7874000Y1016000D02*
X7556500Y698500D01*
X7224710D01*
X6907210Y381000D01*
X6808790D01*
X6554790Y127000D01*
X6350000D01*
X6223000Y254000D01*
G01X6858000D02*
X7048500Y444500D01*
X8445500D01*
X8509000Y508000D01*
X11239500D01*
X11366500Y635000D01*
X11938000D01*
X12065000Y508000D01*
G01X9144000Y635000D02*
X8953500Y825500D01*
X8826500D01*
X8636000Y1016000D01*
G01D02*
X8826500Y1206500D01*
X13144500D01*
X13462000Y889000D01*
X15748000D01*
X16002000Y1143000D01*
G01X13716000Y2921000D02*
X9017000D01*
X8636000Y3302000D01*
G01X11811000Y254000D02*
X11684000Y381000D01*
X9271000D01*
X9144000Y254000D01*
G01X12065000Y3683000D02*
X11938000Y3556000D01*
X10033000D01*
X9906000Y3683000D01*
G01X12065000Y254000D02*
X11874500Y63500D01*
X10858500D01*
X10668000Y254000D01*
G01Y635000D02*
X11288710D01*
X11343710Y690000D01*
X11612000D01*
X11938000Y1016000D01*
G01X10985500Y3048000D02*
X11684000D01*
X11938000Y3302000D01*
G01Y1016000D02*
Y889000D01*
X12319000Y508000D01*
G01X11874500Y2730500D02*
X13081000Y1524000D01*
X13779500D01*
X13906500Y1397000D01*
X14478000D01*
G01X12700000Y3683000D02*
X12573000Y3810000D01*
X11557000D01*
X11430000Y3683000D01*
G01X12446000Y1016000D02*
X12827000Y635000D01*
X13589000D01*
G01X12573000Y254000D02*
X13589000D01*
G01X12573000Y508000D02*
X14859000D01*
X15113000Y254000D01*
G01X12319000Y3683000D02*
X12700000Y3302000D01*
G01X13208000Y3683000D02*
X12954000D01*
G01X13208000D02*
X13398500Y3873500D01*
X15113000D01*
X15240000Y3746500D01*
Y2921000D01*
G01X13716000Y1651000D02*
X13832200D01*
X13959200Y1524000D01*
X14605000D01*
X14795500Y1714500D01*
Y3153490D01*
X14986000Y3343990D01*
Y3556000D01*
X15113000Y3683000D01*
G01X14605000Y3429000D02*
X14097000Y2921000D01*
Y2667000D01*
X13843000Y2413000D01*
X13716000D01*
G01X16764000Y2159000D02*
X16637000Y2286000D01*
X15621000D01*
X15494000Y2413000D01*
X15240000D01*
G01X16002000Y1651000D02*
X17145000D01*
X17399000Y1397000D01*
G01D02*
X17653000Y1143000D01*
M02*
